<svg xmlns="http://www.w3.org/2000/svg" class="iconLeftSlogan" viewBox="0 0 300 300"><rect width="300" height="300" x="0" y="0" fill="transparent" class="logo-background-square"/><g id="c920671d-a3d7-4eee-b627-74d18db13ab8" fill="#000"><path d="M6.79 12.43L6.79 13.69L2.66 13.69L2.66 6.27L6.79 6.27L6.79 7.53L8.19 7.53L8.19 5.95L6.57 5.01L2.88 5.01L1.26 5.95L1.26 14.01L2.88 14.95L6.57 14.95L8.19 14.01L8.19 12.43ZM16.52 5.08L16.52 13.55L11.97 13.55L11.97 5.08L10.57 5.08L10.57 14.01L12.19 14.95L16.30 14.95L17.92 14.01L17.92 5.08ZM21.84 7.48L21.87 7.48L26.94 14.88L28.21 14.88L28.21 5.08L26.81 5.08L26.81 12.49L26.78 12.49L21.71 5.08L20.44 5.08L20.44 14.88L21.84 14.88ZM37.72 6.34L40.50 6.34L40.50 5.08L33.53 5.08L33.53 6.34L36.32 6.34L36.32 14.88L37.72 14.88ZM49.53 14.01L49.53 5.95L47.91 5.01L43.81 5.01L42.18 5.95L42.18 14.01L43.81 14.95L47.91 14.95ZM43.58 6.27L48.13 6.27L48.13 13.69L43.58 13.69ZM58.00 5.08L58.00 13.55L53.45 13.55L53.45 5.08L52.05 5.08L52.05 14.01L53.68 14.95L57.78 14.95L59.40 14.01L59.40 5.08ZM65.56 9.70L67.19 10.64L70.67 10.64L70.67 13.69L66.82 13.69L66.82 12.57L65.42 12.57L65.42 14.01L67.05 14.95L70.45 14.95L72.07 14.01L72.07 10.18L70.45 9.24L66.96 9.24L66.96 6.27L70.67 6.27L70.67 7.39L72.07 7.39L72.07 5.95L70.45 5.01L67.19 5.01L65.56 5.95ZM75.99 10.47L80.68 10.47L80.68 14.88L82.08 14.88L82.08 5.08L80.68 5.08L80.68 9.21L75.99 9.21L75.99 5.08L74.59 5.08L74.59 14.88L75.99 14.88ZM84.60 14.88L86.00 14.88L86.00 5.08L84.60 5.08ZM93.56 10.47L97.05 10.47L97.05 9.21L93.56 9.21L93.56 6.34L97.89 6.34L97.89 5.08L92.16 5.08L92.16 14.88L93.56 14.88ZM105.52 5.08L105.52 13.55L100.97 13.55L100.97 5.08L99.57 5.08L99.57 14.01L101.19 14.95L105.29 14.95L106.92 14.01L106.92 5.08Z" transform="matrix(1.4741645921541506,0,0,1.4741645921541506,102.38232766936827,125.28783734218413)"/></g><defs><linearGradient id="60bc9273-2a96-44b8-af30-f4cead38d030" x1="0%" x2="100%" y1="0%" y2="0%" gradientTransform="rotate(25)"><stop offset="0%" stop-color="#E90DDA" stop-opacity="1"/><stop offset="100%" stop-color="#15CFF1" stop-opacity="1"/></linearGradient></defs><g id="e60ae274-74d1-4e22-9dad-b62d8e60c893" fill="url(#60bc9273-2a96-44b8-af30-f4cead38d030)" stroke="none" transform="matrix(0.5124028716282408,0,0,0.5124028716282408,40.00000006908566,123.86745354695971)"><path d="M33 67.685l12 4.849v-3.105l-6.935-2.878L45 63.583v-3.082L33 65.35zM45.892 73.713l2.56.837 7.003-17.562-2.56-.884zM57 63.583l6.934 2.968L57 69.429v3.105l12-4.849V65.35l-12-4.849zM19.766 35h-2.493l-.657 4h-1.768l.656-4h-2.516l-.657 4H10v2h2.038l-.34 3H10v2h1.38l-.656 4h2.493l.657-4h1.79l-.657 4H17.5l.68-4H20v-2h-1.525l.317-3H21v-2h-1.869l.635-4zm-3.785 9h-1.768l.295-3h1.791l-.318 3z"/><path d="M96.223 15H3.777A3.777 3.777 0 0 0 0 18.777v64.445A3.777 3.777 0 0 0 3.777 87h92.445a3.777 3.777 0 0 0 3.777-3.777V18.777A3.775 3.775 0 0 0 96.223 15zm-73.175 4.544a2.48 2.48 0 1 1-.002 4.96 2.48 2.48 0 0 1 .002-4.96zm-7.554 0a2.48 2.48 0 1 1 0 4.958 2.48 2.48 0 0 1 0-4.958zm-7.554 0a2.48 2.48 0 1 1-.002 4.96 2.48 2.48 0 0 1 .002-4.96zM94 76.059A3.942 3.942 0 0 1 90.058 80H7.942A3.942 3.942 0 0 1 4 76.059V32.941A3.942 3.942 0 0 1 7.942 29h82.115A3.942 3.942 0 0 1 94 32.941v43.118z"/><path d="M75.367 36.812c-.488.529-.367 1.261-.367 2.16v3.391c0 .278-.404.509-.484.694-.08.186-.473.327-.599.427a1.15 1.15 0 0 1-.434.208 3.745 3.745 0 0 1-.483.058v2.182s.342.02.499.06c.159.04.372.112.499.218.125.106.463.255.542.447.078.191.46.439.46.743v3.311c0 .899-.121 1.29.367 1.818.49.529.784.471 1.617.471H80v-2h-1.377c-.383 0-.487.156-.599-.094-.113-.252-.024-.242-.024-.531v-3.233c0-.437-.24-.796-.371-1.081s-.35-.512-.541-.685c-.191-.171-.328-.297-.54-.376-.212-.079-.548-.125-.548-.139v-.039c0-.014.256-.066.465-.159.214-.093.414-.225.605-.397.192-.171.501-.393.632-.665.132-.27.298-.597.298-.98v-3.312c0-.29-.089-.621.024-.872.112-.251.216-.437.599-.437H80v-2h-3.016c-.833 0-1.127.283-1.617.812zM89.083 43.484c-.126-.1-.519-.241-.599-.427-.08-.185-.484-.416-.484-.694v-3.391c0-.899.121-1.631-.367-2.161-.49-.528-.784-.811-1.617-.811H83v2h1.377c.383 0 .487.186.599.437.113.251.024.582.024.872v3.312c0 .384.166.71.298.981.131.271.439.493.632.665.191.172.392.304.605.397.209.092.465.145.465.158v.039c0 .014-.336.06-.548.139-.212.08-.349.205-.54.377s-.41.4-.541.685-.371.643-.371 1.081v3.232c0 .289.089.279-.024.531-.112.25-.216.094-.599.094H83v2h3.016c.833 0 1.127.058 1.617-.471.488-.528.367-.919.367-1.818V47.4c0-.305.382-.553.46-.744.079-.191.417-.34.542-.446.127-.106.34-.179.499-.218.157-.04.499-.06.499-.06V43.75s-.324-.019-.483-.059a1.133 1.133 0 0 1-.434-.207z"/></g><g id="79f8b04c-73db-46c8-ba22-890a1de7771e" fill="#000"><path d="M8.76 10.68L8.76 10.68Q8.37 11.86 7.40 12.51L7.40 12.51L7.40 12.51Q6.43 13.16 5.07 13.16L5.07 13.16L5.07 13.16Q3.81 13.16 2.86 12.58L2.86 12.58L2.86 12.58Q1.90 12.00 1.39 10.92L1.39 10.92L1.39 10.92Q0.87 9.84 0.87 8.40L0.87 8.40L0.87 8.40Q0.87 6.96 1.39 5.88L1.39 5.88L1.39 5.88Q1.90 4.80 2.86 4.22L2.86 4.22L2.86 4.22Q3.81 3.64 5.05 3.64L5.05 3.64L5.05 3.64Q7.83 3.64 8.64 5.92L8.64 5.92L7.95 6.24L7.95 6.24Q7.63 5.26 6.92 4.77L6.92 4.77L6.92 4.77Q6.22 4.28 5.10 4.28L5.10 4.28L5.10 4.28Q4.06 4.28 3.27 4.78L3.27 4.78L3.27 4.78Q2.48 5.28 2.04 6.21L2.04 6.21L2.04 6.21Q1.61 7.14 1.61 8.40L1.61 8.40L1.61 8.40Q1.61 9.66 2.04 10.59L2.04 10.59L2.04 10.59Q2.46 11.52 3.24 12.02L3.24 12.02L3.24 12.02Q4.02 12.52 5.07 12.52L5.07 12.52L5.07 12.52Q6.19 12.52 6.97 11.97L6.97 11.97L6.97 11.97Q7.76 11.42 8.06 10.42L8.06 10.42L8.76 10.68ZM24.84 3.78L24.84 9.65L24.84 9.65Q24.84 11.35 23.91 12.26L23.91 12.26L23.91 12.26Q22.99 13.16 21.28 13.16L21.28 13.16L21.28 13.16Q19.57 13.16 18.64 12.26L18.64 12.26L18.64 12.26Q17.71 11.35 17.71 9.65L17.71 9.65L17.71 3.78L18.41 3.78L18.41 9.51L18.41 9.51Q18.41 10.99 19.14 11.75L19.14 11.75L19.14 11.75Q19.87 12.52 21.28 12.52L21.28 12.52L21.28 12.52Q22.68 12.52 23.41 11.75L23.41 11.75L23.41 11.75Q24.14 10.99 24.14 9.51L24.14 9.51L24.14 3.78L24.84 3.78ZM41.73 3.78L41.73 13.02L40.87 13.02L35.97 5.77L35.28 4.54L35.27 4.54L35.31 5.70L35.31 13.02L34.64 13.02L34.64 3.78L35.52 3.78L40.40 11.02L41.10 12.26L41.08 11.10L41.08 3.78L41.73 3.78ZM57.95 3.78L57.95 4.42L54.57 4.42L54.57 13.02L53.87 13.02L53.87 4.42L50.50 4.42L50.50 3.78L57.95 3.78ZM69.89 3.64L69.89 3.64Q71.19 3.64 72.15 4.22L72.15 4.22L72.15 4.22Q73.11 4.80 73.63 5.87L73.63 5.87L73.63 5.87Q74.14 6.94 74.14 8.40L74.14 8.40L74.14 8.40Q74.14 9.86 73.63 10.93L73.63 10.93L73.63 10.93Q73.11 12.00 72.15 12.58L72.15 12.58L72.15 12.58Q71.19 13.16 69.89 13.16L69.89 13.16L69.89 13.16Q68.59 13.16 67.63 12.58L67.63 12.58L67.63 12.58Q66.67 12.00 66.15 10.93L66.15 10.93L66.15 10.93Q65.63 9.86 65.63 8.40L65.63 8.40L65.63 8.40Q65.63 6.94 66.15 5.87L66.15 5.87L66.15 5.87Q66.67 4.80 67.63 4.22L67.63 4.22L67.63 4.22Q68.59 3.64 69.89 3.64L69.89 3.64ZM69.89 4.28L69.89 4.28Q68.81 4.28 68.02 4.78L68.02 4.78L68.02 4.78Q67.23 5.28 66.80 6.21L66.80 6.21L66.80 6.21Q66.37 7.14 66.37 8.40L66.37 8.40L66.37 8.40Q66.37 9.66 66.80 10.59L66.80 10.59L66.80 10.59Q67.23 11.52 68.02 12.02L68.02 12.02L68.02 12.02Q68.81 12.52 69.89 12.52L69.89 12.52L69.89 12.52Q70.97 12.52 71.76 12.02L71.76 12.02L71.76 12.02Q72.56 11.52 72.99 10.59L72.99 10.59L72.99 10.59Q73.42 9.66 73.42 8.40L73.42 8.40L73.42 8.40Q73.42 7.14 72.99 6.21L72.99 6.21L72.99 6.21Q72.56 5.28 71.76 4.78L71.76 4.78L71.76 4.78Q70.97 4.28 69.89 4.28L69.89 4.28ZM90.48 3.78L90.48 9.65L90.48 9.65Q90.48 11.35 89.56 12.26L89.56 12.26L89.56 12.26Q88.63 13.16 86.93 13.16L86.93 13.16L86.93 13.16Q85.22 13.16 84.29 12.26L84.29 12.26L84.29 12.26Q83.36 11.35 83.36 9.65L83.36 9.65L83.36 3.78L84.06 3.78L84.06 9.51L84.06 9.51Q84.06 10.99 84.78 11.75L84.78 11.75L84.78 11.75Q85.51 12.52 86.93 12.52L86.93 12.52L86.93 12.52Q88.33 12.52 89.05 11.75L89.05 11.75L89.05 11.75Q89.78 10.99 89.78 9.51L89.78 9.51L89.78 3.78L90.48 3.78ZM120.26 3.78L120.26 13.02L119.59 13.02L119.59 6.13L119.67 4.45L119.66 4.45L116.28 13.02L115.64 13.02L112.27 4.45L112.25 4.45L112.34 6.13L112.34 13.02L111.66 13.02L111.66 3.78L112.71 3.78L115.50 10.78L115.96 12.19L115.98 12.19L116.42 10.79L119.21 3.78L120.26 3.78ZM136.46 13.02L135.30 10.12L130.87 10.12L129.72 13.02L128.98 13.02L132.68 3.78L133.50 3.78L137.20 13.02L136.46 13.02ZM131.14 9.48L135.04 9.48L133.43 5.45L133.10 4.47L133.08 4.47L132.75 5.42L131.14 9.48ZM148.67 3.64L148.67 3.64Q151.27 3.64 152.15 5.68L152.15 5.68L151.55 6.17L151.55 6.17Q151.20 5.18 150.51 4.73L150.51 4.73L150.51 4.73Q149.81 4.28 148.68 4.28L148.68 4.28L148.68 4.28Q147.87 4.28 147.27 4.54L147.27 4.54L147.27 4.54Q146.66 4.79 146.35 5.22L146.35 5.22L146.35 5.22Q146.03 5.66 146.03 6.20L146.03 6.20L146.03 6.20Q146.03 6.73 146.30 7.08L146.30 7.08L146.30 7.08Q146.57 7.43 147.20 7.68L147.20 7.68L147.20 7.68Q147.84 7.92 148.96 8.12L148.96 8.12L148.96 8.12Q150.77 8.43 151.52 9.02L151.52 9.02L151.52 9.02Q152.28 9.60 152.28 10.64L152.28 10.64L152.28 10.64Q152.28 11.38 151.84 11.96L151.84 11.96L151.84 11.96Q151.41 12.53 150.62 12.84L150.62 12.84L150.62 12.84Q149.83 13.16 148.81 13.16L148.81 13.16L148.81 13.16Q147.35 13.16 146.35 12.58L146.35 12.58L146.35 12.58Q145.35 12.00 144.98 10.95L144.98 10.95L145.60 10.47L145.60 10.47Q145.88 11.47 146.73 11.99L146.73 11.99L146.73 11.99Q147.57 12.52 148.82 12.52L148.82 12.52L148.82 12.52Q150.02 12.52 150.79 12.03L150.79 12.03L150.79 12.03Q151.55 11.54 151.55 10.68L151.55 10.68L151.55 10.68Q151.55 9.94 150.93 9.51L150.93 9.51L150.93 9.51Q150.30 9.07 148.76 8.81L148.76 8.81L148.76 8.81Q147.46 8.58 146.71 8.26L146.71 8.26L146.71 8.26Q145.95 7.94 145.62 7.46L145.62 7.46L145.62 7.46Q145.29 6.99 145.29 6.27L145.29 6.27L145.29 6.27Q145.29 5.56 145.71 4.96L145.71 4.96L145.71 4.96Q146.12 4.35 146.88 4.00L146.88 4.00L146.88 4.00Q147.64 3.64 148.67 3.64L148.67 3.64ZM167.36 3.78L167.36 4.42L163.98 4.42L163.98 13.02L163.28 13.02L163.28 4.42L159.91 4.42L159.91 3.78L167.36 3.78ZM176.82 12.38L182.66 12.38L182.66 13.02L176.12 13.02L176.12 3.78L182.43 3.78L182.43 4.42L176.82 4.42L176.82 7.99L181.26 7.99L181.26 8.65L176.82 8.65L176.82 12.38ZM198.63 13.02L197.81 13.02L195.16 9.02L195.12 9.02L192.39 9.02L192.39 13.02L191.69 13.02L191.69 3.78L195.12 3.78L195.12 3.78Q196.50 3.78 197.32 4.48L197.32 4.48L197.32 4.48Q198.14 5.18 198.14 6.40L198.14 6.40L198.14 6.40Q198.14 7.41 197.55 8.07L197.55 8.07L197.55 8.07Q196.97 8.74 195.94 8.93L195.94 8.93L198.63 13.02ZM192.39 4.42L192.39 8.36L195.10 8.36L195.10 8.36Q196.22 8.36 196.82 7.85L196.82 7.85L196.82 7.85Q197.41 7.35 197.41 6.40L197.41 6.40L197.41 6.40Q197.41 5.45 196.82 4.93L196.82 4.93L196.82 4.93Q196.22 4.42 195.10 4.42L195.10 4.42L192.39 4.42Z" transform="matrix(0.787622457862817,0,0,0.787622457862817,103.55454349932744,154.45965188446854)"/></g></svg>