<?xml version="1.0" standalone="no"?>
<!DOCTYPE svg PUBLIC "-//W3C//DTD SVG 20010904//EN"
 "http://www.w3.org/TR/2001/REC-SVG-20010904/DTD/svg10.dtd">
<svg version="1.0" xmlns="http://www.w3.org/2000/svg"
 width="8412.000000pt" height="2007.000000pt" viewBox="0 0 8412.000000 2007.000000"
 preserveAspectRatio="xMidYMid meet">

<g transform="translate(0.000000,2007.000000) scale(0.100000,-0.100000)"
fill="#000000" stroke="none">
<path d="M15590 19270 c0 -38 -35 -54 -100 -46 -38 5 -51 2 -84 -21 l-40 -26
-405 -8 c-433 -9 -663 -27 -741 -59 -26 -10 -58 -16 -76 -13 -23 4 -43 -2 -70
-20 -37 -24 -52 -26 -259 -37 -243 -13 -391 -31 -447 -54 -22 -9 -49 -13 -67
-10 -23 5 -39 -1 -73 -24 -41 -29 -48 -30 -173 -35 -82 -3 -146 -11 -174 -21
-24 -9 -53 -16 -64 -16 -11 0 -38 -17 -61 -38 l-42 -39 -130 -7 c-71 -3 -145
-11 -164 -16 -19 -5 -50 -11 -68 -13 -20 -3 -51 -23 -82 -50 l-50 -45 -132 -5
c-162 -6 -238 -28 -305 -87 -43 -38 -49 -40 -111 -40 -83 0 -202 -39 -254 -84
-35 -30 -109 -56 -159 -56 -11 0 -44 -22 -72 -49 -49 -45 -56 -49 -121 -55
-77 -8 -189 -51 -246 -96 -19 -15 -45 -31 -58 -34 -12 -4 -40 -31 -61 -60
l-39 -53 -79 -6 c-84 -6 -81 -5 -150 -95 -20 -26 -30 -30 -95 -35 l-73 -6 -50
-56 c-48 -54 -52 -57 -115 -65 -68 -8 -100 -18 -100 -29 0 -3 -17 -25 -38 -47
-34 -37 -43 -42 -100 -49 -75 -9 -203 -68 -247 -115 -16 -17 -43 -38 -60 -45
-16 -7 -50 -31 -73 -54 -24 -22 -50 -41 -57 -41 -27 0 -136 -59 -175 -94 -22
-20 -46 -36 -53 -36 -6 0 -38 -26 -69 -57 -32 -32 -72 -72 -90 -89 -18 -18
-44 -45 -58 -61 -22 -26 -35 -31 -92 -37 -64 -7 -68 -9 -122 -64 -31 -31 -70
-70 -89 -87 -18 -16 -42 -43 -53 -58 -15 -22 -37 -33 -89 -48 -53 -14 -76 -26
-95 -50 -52 -64 -200 -199 -218 -199 -6 0 -23 -17 -38 -37 -24 -33 -98 -112
-172 -185 -13 -13 -52 -51 -87 -85 -35 -35 -68 -63 -74 -63 -6 0 -28 -24 -51
-54 -22 -30 -52 -62 -68 -72 -16 -9 -40 -34 -53 -56 -13 -21 -39 -48 -57 -60
-18 -11 -51 -44 -72 -73 -38 -51 -41 -53 -111 -66 -70 -14 -75 -17 -114 -65
-22 -28 -52 -58 -67 -67 -15 -8 -43 -38 -63 -66 -20 -27 -45 -53 -56 -56 -11
-4 -37 -31 -59 -61 -22 -29 -53 -60 -68 -68 -16 -8 -41 -33 -55 -55 -15 -23
-44 -52 -65 -65 -21 -13 -50 -42 -65 -64 -16 -22 -41 -46 -57 -52 -16 -7 -43
-33 -59 -59 -16 -25 -44 -54 -61 -64 -17 -10 -48 -42 -69 -71 -37 -50 -41 -53
-107 -64 -74 -13 -72 -12 -216 -159 -26 -26 -57 -57 -68 -68 -12 -11 -39 -38
-60 -60 -40 -41 -54 -55 -111 -109 -19 -18 -46 -47 -60 -66 -24 -32 -30 -34
-95 -38 -77 -4 -84 -8 -136 -73 -34 -43 -41 -47 -105 -57 -63 -10 -71 -15
-113 -60 -25 -27 -62 -59 -82 -71 -21 -13 -38 -26 -38 -31 0 -5 -15 -25 -34
-44 -29 -32 -39 -36 -82 -36 -27 -1 -65 -7 -84 -14 -120 -47 -148 -60 -170
-82 -28 -26 -142 -84 -166 -84 -19 0 -73 -27 -99 -50 -20 -18 -141 -70 -163
-70 -6 0 -32 -16 -58 -36 -29 -22 -77 -45 -126 -60 -60 -18 -91 -34 -123 -62
-37 -35 -49 -40 -111 -46 -68 -7 -70 -8 -125 -67 l-56 -59 -95 0 c-62 0 -122
-7 -173 -20 -43 -11 -86 -20 -96 -20 -10 0 -39 -18 -64 -40 -54 -46 -57 -47
-195 -54 -59 -2 -124 -11 -149 -20 -24 -9 -54 -16 -66 -16 -13 0 -46 -17 -74
-39 -51 -38 -53 -38 -164 -44 -61 -3 -134 -13 -162 -21 -27 -9 -64 -16 -82
-16 -22 0 -45 -11 -76 -38 l-45 -39 -178 -6 c-178 -6 -428 -29 -514 -47 -25
-5 -70 -9 -100 -9 -30 -1 -110 -6 -177 -13 -121 -12 -122 -12 -280 22 -137 29
-182 34 -340 38 l-183 4 0 -56 0 -56 39 0 c41 0 76 -26 109 -82 9 -15 24 -30
34 -34 9 -3 40 -32 68 -64 29 -33 57 -60 63 -60 6 0 32 -19 57 -43 38 -37 148
-97 177 -97 5 0 27 -18 48 -41 22 -22 60 -51 85 -64 25 -13 55 -36 67 -53 21
-28 128 -92 156 -92 7 0 31 -18 52 -41 22 -22 56 -49 77 -60 20 -10 53 -39 73
-64 21 -25 45 -45 54 -45 10 0 44 -9 77 -20 44 -15 73 -34 109 -70 27 -28 55
-50 62 -50 7 0 30 -15 50 -33 21 -19 74 -53 118 -77 44 -24 101 -62 126 -84
55 -49 158 -86 237 -86 68 0 82 -8 122 -69 17 -28 41 -53 52 -57 12 -3 41 -25
65 -47 40 -37 124 -76 165 -77 9 0 40 -20 69 -45 48 -41 127 -75 174 -75 9 0
40 -23 70 -51 47 -44 62 -52 132 -69 71 -17 82 -22 120 -66 40 -45 46 -48 120
-60 43 -7 104 -13 136 -13 57 -1 58 -2 108 -55 49 -52 53 -55 115 -61 44 -5
75 -15 97 -31 89 -65 224 -104 361 -104 l100 0 47 -46 c30 -29 57 -47 75 -48
16 -2 76 -9 134 -17 75 -10 223 -14 520 -14 370 0 420 2 460 17 25 10 54 18
66 18 11 0 43 20 71 44 47 39 59 44 120 51 37 4 88 15 112 26 24 10 52 19 62
19 10 0 33 13 51 28 64 55 80 62 143 62 43 0 75 7 113 25 30 14 62 25 71 25
10 0 37 14 61 31 23 17 78 41 122 55 56 16 92 34 119 59 21 19 49 37 61 39
129 27 132 28 178 77 36 40 54 51 95 59 28 6 62 13 76 16 15 3 47 27 72 54 42
44 51 49 119 61 66 11 77 17 116 56 48 50 66 58 145 68 53 7 61 11 101 57 40
46 48 50 117 65 66 13 80 20 129 67 49 46 63 53 124 65 61 12 73 18 114 62 40
42 54 50 118 65 60 14 80 25 121 63 41 38 62 49 122 65 60 15 83 27 125 66 41
36 63 48 98 53 24 3 78 22 119 42 92 44 129 44 243 3 71 -26 102 -44 152 -89
34 -32 69 -61 77 -65 8 -5 28 -30 44 -55 27 -44 65 -86 174 -197 26 -26 56
-66 68 -90 12 -24 38 -52 60 -67 51 -31 52 -34 61 -118 7 -64 11 -74 42 -99
63 -52 78 -71 83 -107 4 -20 9 -49 12 -66 3 -16 23 -46 44 -67 22 -22 50 -60
63 -87 14 -26 41 -60 61 -76 45 -33 65 -78 65 -141 0 -44 4 -51 50 -93 57 -53
70 -82 70 -156 0 -52 1 -55 50 -96 55 -47 70 -80 68 -156 -2 -58 14 -83 65
-110 38 -19 61 -75 52 -128 -8 -56 9 -89 61 -120 52 -30 69 -74 60 -147 -6
-43 2 -137 20 -246 3 -20 24 -54 55 -88 27 -30 50 -62 50 -72 1 -9 3 -62 5
-117 4 -151 34 -268 80 -306 28 -23 44 -75 44 -144 0 -77 9 -99 50 -120 42
-21 53 -49 60 -139 7 -85 2 -76 87 -142 26 -20 27 -26 34 -146 7 -135 13 -156
59 -188 44 -32 70 -89 70 -155 0 -56 1 -58 55 -110 57 -54 58 -57 59 -153 1
-52 3 -56 53 -100 60 -54 72 -80 71 -153 -1 -51 0 -53 49 -98 61 -55 73 -76
73 -131 0 -49 20 -91 54 -114 40 -26 57 -60 66 -133 8 -62 12 -71 48 -103 22
-19 52 -59 66 -87 14 -29 38 -60 52 -70 14 -9 44 -41 65 -70 22 -29 53 -60 69
-68 40 -21 60 -63 60 -130 0 -51 3 -59 31 -85 17 -15 41 -37 53 -49 110 -111
143 -148 167 -186 16 -25 35 -45 43 -45 9 0 34 -25 56 -55 22 -30 53 -61 69
-69 16 -9 42 -37 60 -64 17 -27 42 -54 56 -60 13 -6 41 -36 60 -66 20 -30 49
-59 63 -66 15 -6 42 -31 61 -56 19 -25 43 -50 55 -55 19 -10 50 -39 196 -185
30 -30 60 -54 67 -54 7 0 28 -19 48 -43 33 -39 98 -80 173 -107 19 -8 47 -33
68 -61 20 -27 47 -52 60 -55 13 -4 39 -23 57 -44 17 -20 46 -45 62 -55 17 -10
41 -29 55 -41 34 -31 162 -114 175 -114 6 0 32 -18 57 -39 29 -23 78 -50 125
-66 64 -22 87 -36 125 -77 47 -51 85 -67 156 -68 27 0 45 -11 90 -54 51 -48
64 -55 125 -67 54 -10 78 -21 111 -50 53 -47 139 -78 237 -86 69 -5 78 -4 98
16 38 38 26 83 -29 111 -20 10 -50 36 -65 57 -16 21 -36 42 -44 47 -9 5 -41
35 -72 66 -31 32 -66 61 -76 64 -11 4 -37 31 -58 61 -20 30 -43 55 -50 55 -7
0 -35 19 -61 43 -27 23 -61 50 -76 60 -15 10 -36 34 -47 55 -10 20 -30 47 -43
60 -48 46 -114 100 -146 119 -18 11 -70 61 -116 112 -46 51 -104 105 -127 120
-44 28 -157 149 -193 205 -10 16 -62 73 -114 125 -52 53 -106 114 -121 136
-14 23 -46 61 -71 87 -101 102 -138 146 -174 201 -21 31 -42 57 -47 57 -4 0
-30 29 -56 65 -26 35 -58 70 -71 76 -32 18 -60 67 -68 119 -6 34 -19 57 -54
95 -26 27 -56 66 -68 86 -12 21 -33 44 -47 53 -14 9 -34 35 -46 59 -12 23 -44
63 -71 88 -51 47 -67 85 -68 158 0 28 -9 43 -50 80 -53 50 -70 83 -70 137 0
44 -21 86 -54 108 -41 26 -58 61 -66 138 -8 69 -10 73 -54 112 -51 46 -60 65
-70 147 -6 49 -13 62 -48 94 -51 47 -68 89 -68 162 0 65 -15 95 -60 118 -46
24 -54 49 -60 188 l-5 127 -59 54 -59 55 5 69 c6 82 -3 104 -58 142 -55 37
-66 63 -60 140 3 36 0 116 -7 179 l-13 114 -41 36 c-23 20 -46 46 -52 58 -6
11 -11 70 -11 130 1 97 -16 231 -35 275 -4 9 -17 24 -31 32 -46 31 -58 71 -56
186 3 108 -13 250 -31 284 -5 11 -23 31 -39 44 -48 40 -51 61 -49 270 l3 192
-35 33 c-19 17 -45 39 -58 48 l-24 17 -2 223 c-2 358 -13 429 -68 465 -49 32
-60 67 -60 199 0 132 -10 162 -65 190 -38 20 -64 86 -55 143 9 58 -7 94 -54
120 -47 27 -71 73 -71 137 0 45 -3 51 -54 99 -29 28 -63 68 -75 88 -13 21 -35
45 -50 54 -39 23 -58 59 -66 129 -8 59 -8 60 -109 160 -56 55 -114 118 -131
141 -16 23 -44 53 -62 68 -17 14 -43 46 -57 71 -15 24 -39 51 -54 61 -16 9
-41 36 -57 61 -15 25 -43 54 -60 66 -18 12 -44 41 -59 64 -14 24 -41 53 -60
64 -18 11 -46 37 -61 59 -15 22 -42 48 -61 59 -18 11 -47 42 -64 69 -16 27
-41 54 -55 60 -13 6 -41 34 -61 62 -20 28 -49 57 -64 65 -15 8 -46 36 -68 63
-40 47 -43 49 -119 60 -89 12 -403 9 -428 -5 -9 -5 -33 -32 -54 -59 -36 -48
-38 -49 -111 -60 -75 -11 -85 -18 -132 -81 -7 -11 -28 -29 -46 -42 -19 -13
-47 -46 -64 -73 -17 -27 -43 -55 -58 -63 -15 -8 -42 -33 -60 -55 -18 -22 -45
-47 -61 -55 -15 -8 -42 -36 -60 -61 -17 -25 -45 -54 -61 -64 -17 -10 -47 -40
-67 -67 -20 -26 -49 -54 -64 -61 -15 -7 -39 -33 -53 -58 -14 -24 -39 -51 -54
-59 -16 -8 -48 -40 -72 -72 -41 -55 -46 -58 -108 -70 -69 -14 -56 -3 -220
-172 -14 -14 -37 -37 -53 -51 -15 -14 -45 -43 -67 -65 -21 -22 -50 -51 -65
-65 -14 -14 -51 -51 -81 -82 -53 -53 -60 -57 -127 -69 -68 -12 -75 -16 -127
-69 -47 -48 -66 -60 -127 -79 -42 -13 -81 -33 -95 -48 -12 -14 -39 -33 -59
-44 -20 -10 -49 -33 -63 -51 -65 -79 -62 -78 -141 -78 -120 0 -172 -16 -230
-70 l-50 -48 -106 -5 c-59 -2 -137 -12 -175 -21 -38 -9 -81 -18 -96 -21 -15
-3 -48 -23 -73 -45 l-46 -40 -262 -2 c-144 -2 -419 -1 -612 1 -384 4 -383 4
-431 66 -14 19 -34 35 -44 35 -45 0 -55 72 -10 78 14 2 44 20 68 39 38 31 53
36 125 44 149 17 198 28 244 54 29 17 53 25 67 21 16 -4 37 4 67 23 33 22 61
31 114 36 67 7 72 9 120 56 47 46 54 49 115 55 36 3 97 12 135 20 59 13 77 22
112 57 40 39 47 41 120 48 109 11 185 37 244 85 43 35 62 43 123 53 69 11 76
15 123 64 45 48 55 54 119 66 58 12 75 20 105 51 20 21 54 49 75 63 22 13 52
43 68 66 29 42 49 51 143 66 35 5 51 16 85 55 32 36 62 57 118 81 41 18 93 49
115 70 22 20 54 44 71 53 18 8 46 33 63 55 17 21 47 47 65 58 19 10 49 38 68
63 30 39 42 47 106 65 57 16 81 30 119 66 27 25 61 53 76 63 15 9 40 34 55 56
19 27 51 51 111 81 49 26 94 57 110 77 14 18 40 40 56 49 34 18 110 82 193
164 31 30 69 63 84 72 15 9 41 37 57 61 21 31 42 48 68 57 56 17 114 53 153
94 19 20 51 45 71 55 20 10 48 35 63 54 15 20 44 45 65 56 21 10 70 50 108 88
39 38 88 82 109 98 22 15 55 43 73 61 19 19 45 36 57 39 13 3 41 30 63 59 22
30 50 56 61 60 11 3 20 10 20 13 0 12 83 94 155 152 37 30 95 82 129 116 48
48 75 66 129 85 55 19 75 32 100 66 18 23 43 48 57 55 31 16 115 86 188 159
32 31 67 61 79 68 13 6 40 35 61 64 36 48 44 54 116 75 60 18 88 32 124 66 26
24 58 47 72 51 77 23 136 64 285 198 36 31 71 57 79 57 33 0 128 54 153 87 15
20 43 42 61 50 19 8 56 36 84 64 27 27 58 49 68 49 43 0 125 42 165 86 23 24
49 44 57 44 9 0 36 22 60 49 38 44 53 53 125 76 52 16 92 36 110 53 43 43 72
58 142 72 55 12 71 20 106 56 32 34 58 49 120 70 53 18 95 40 126 67 35 30 65
45 120 59 62 16 82 27 126 69 31 29 61 49 75 49 64 0 130 29 172 74 39 42 46
46 90 46 26 0 75 6 109 14 34 8 75 18 90 21 16 3 47 23 70 44 37 33 52 40 116
49 71 10 75 13 125 65 l51 55 116 5 c73 3 130 11 155 22 21 9 58 20 82 26 24
5 63 24 87 43 38 29 52 33 107 35 85 2 90 4 123 57 16 25 37 49 46 55 10 5 71
9 136 9 165 1 350 16 402 35 24 8 56 15 71 15 15 0 46 15 72 35 44 35 49 36
148 40 56 2 143 7 193 11 98 7 91 4 164 86 l23 26 709 7 c390 4 1078 4 1527 0
l818 -8 47 -46 c47 -47 49 -48 141 -59 51 -7 192 -13 313 -14 l220 -1 50 -47
c45 -43 57 -48 125 -59 41 -7 183 -15 315 -18 l240 -6 50 -52 50 -52 110 -6
c61 -4 175 -10 255 -13 l145 -6 36 -35 c28 -26 52 -38 105 -49 90 -21 214 -32
344 -33 l106 -1 53 -40 c32 -24 64 -40 81 -40 15 0 46 -6 68 -14 50 -18 351
-36 597 -36 l180 0 51 -57 50 -56 190 -6 189 -6 48 -37 c34 -27 59 -38 82 -38
19 0 46 -5 62 -11 38 -15 434 -39 620 -38 84 0 158 -3 165 -7 7 -4 30 -26 50
-49 35 -40 41 -42 120 -53 46 -7 107 -12 136 -12 29 0 63 -6 75 -12 12 -7 54
-13 92 -14 95 -1 248 -20 315 -38 185 -50 884 -70 2135 -63 884 6 982 11 1090
57 29 12 56 17 75 14 22 -5 40 1 74 23 41 27 56 31 157 37 62 4 138 16 173 26
33 11 71 20 83 20 11 0 40 15 62 34 35 29 51 35 108 41 135 12 224 25 243 35
10 5 31 10 45 10 32 0 59 14 102 51 25 21 46 29 100 34 65 7 70 10 119 60 l50
52 130 6 c175 10 261 33 319 86 43 40 47 41 112 41 102 0 201 31 238 73 42 48
64 57 143 57 38 0 94 5 123 10 46 9 61 18 100 60 46 50 46 50 110 50 35 0 98
6 139 14 67 13 79 19 110 55 19 22 48 45 63 50 16 6 78 11 140 11 l111 0 56
-60 c31 -33 61 -60 68 -60 7 0 26 -21 42 -47 17 -27 50 -68 75 -93 24 -25 69
-70 98 -100 30 -30 62 -70 71 -87 33 -66 89 -78 123 -27 14 23 15 40 5 167 -7
78 -14 221 -16 317 -5 195 -1 213 58 269 20 20 42 55 51 82 17 51 63 99 95 99
9 0 39 12 65 26 46 26 50 27 167 20 67 -4 129 -11 139 -17 10 -5 32 -29 48
-53 17 -24 38 -47 48 -51 34 -14 348 -17 643 -6 223 8 361 8 564 -1 l269 -12
31 -26 c42 -37 69 -50 103 -50 15 0 51 -7 78 -15 28 -9 99 -18 159 -22 l109
-6 48 -52 c47 -49 53 -52 125 -64 70 -12 80 -16 125 -60 42 -41 58 -49 116
-61 57 -12 76 -22 118 -60 43 -39 63 -49 127 -64 67 -16 81 -23 123 -66 42
-43 55 -50 114 -60 61 -11 70 -17 128 -74 153 -151 181 -176 196 -176 9 0 39
-5 67 -11 45 -10 55 -17 91 -65 22 -30 51 -59 63 -64 13 -5 43 -29 67 -55 23
-25 53 -48 66 -51 13 -4 33 -20 45 -38 18 -27 73 -85 168 -181 14 -14 52 -49
84 -77 33 -29 76 -70 95 -90 20 -21 86 -88 147 -150 60 -62 121 -129 134 -148
21 -30 106 -122 156 -170 70 -67 170 -184 197 -231 14 -25 38 -54 52 -63 14
-9 42 -39 61 -66 20 -27 48 -55 62 -62 14 -7 39 -32 55 -56 16 -24 46 -54 68
-67 21 -14 43 -33 49 -44 6 -12 10 -117 10 -277 l0 -257 -36 -33 c-19 -19 -39
-34 -44 -34 -5 0 -19 -17 -31 -37 -13 -21 -64 -77 -114 -125 -114 -111 -118
-115 -165 -163 -22 -22 -52 -52 -67 -67 -16 -15 -40 -42 -54 -60 -23 -28 -37
-35 -95 -46 -61 -11 -74 -18 -119 -62 -46 -45 -56 -50 -120 -60 -67 -10 -72
-13 -121 -65 l-51 -55 -192 0 -191 0 -46 42 c-51 47 -40 45 -304 68 -128 11
-138 14 -186 46 -28 19 -62 34 -75 34 -14 0 -52 10 -84 21 -54 19 -73 21 -191
15 -72 -3 -168 -13 -215 -21 -70 -12 -88 -19 -106 -42 -27 -34 -29 -63 -5 -92
14 -18 34 -23 127 -31 207 -18 250 -28 300 -72 66 -58 175 -88 320 -88 l112 0
51 -49 c49 -47 54 -49 124 -56 95 -9 131 -25 147 -63 10 -25 10 -36 -1 -58
-26 -56 5 -54 -883 -47 -597 4 -873 3 -1015 -6 -257 -16 -360 -28 -405 -47
-25 -10 -51 -13 -76 -9 -31 5 -45 2 -76 -19 -34 -24 -47 -26 -138 -26 -100 -1
-240 -12 -348 -28 -46 -7 -65 -16 -95 -44 -56 -54 -70 -58 -197 -58 -129 0
-120 4 -197 -88 -24 -29 -31 -32 -85 -32 -91 -1 -194 -17 -238 -38 -22 -11
-57 -22 -78 -25 -21 -3 -57 -20 -79 -36 -23 -17 -49 -31 -58 -31 -41 0 -137
-43 -171 -76 -37 -36 -85 -53 -147 -54 -34 0 -45 -9 -109 -83 -30 -36 -34 -37
-96 -37 -83 0 -216 -46 -262 -90 -26 -25 -43 -32 -103 -39 -40 -5 -90 -19
-112 -30 -23 -12 -48 -21 -58 -21 -16 0 -36 -11 -95 -53 -14 -10 -60 -27 -103
-37 -60 -15 -85 -27 -113 -53 -48 -46 -65 -54 -136 -62 -56 -7 -64 -12 -112
-61 -45 -46 -58 -54 -90 -54 -90 0 -112 -10 -153 -65 l-38 -52 -89 -6 c-131
-10 -187 -29 -242 -80 -43 -41 -53 -45 -116 -52 -67 -7 -70 -8 -125 -66 -53
-55 -60 -59 -103 -59 -49 0 -184 -40 -227 -67 -14 -8 -36 -26 -50 -38 -14 -13
-61 -35 -105 -50 -49 -17 -94 -40 -116 -60 -23 -20 -65 -41 -118 -59 -54 -17
-98 -39 -123 -61 -27 -22 -67 -42 -116 -57 -56 -16 -88 -33 -123 -64 -44 -39
-126 -74 -173 -74 -8 0 -38 -20 -65 -44 -27 -24 -67 -49 -88 -56 -61 -20 -135
-60 -177 -96 -22 -19 -45 -34 -52 -34 -27 0 -132 -56 -171 -92 -24 -21 -48
-38 -55 -38 -7 0 -35 -23 -64 -51 -44 -43 -61 -53 -125 -69 -62 -16 -80 -25
-109 -58 -19 -21 -50 -47 -68 -56 -18 -9 -49 -39 -68 -66 -37 -51 -44 -55
-154 -79 -33 -7 -55 -21 -85 -55 -23 -25 -53 -47 -66 -50 -124 -26 -126 -27
-178 -82 -28 -30 -57 -54 -64 -54 -25 0 -137 -60 -159 -85 -13 -15 -40 -35
-60 -46 -20 -10 -55 -39 -78 -63 -34 -36 -56 -49 -113 -66 -74 -23 -67 -17
-232 -179 -34 -32 -71 -61 -82 -65 -12 -4 -38 -29 -58 -57 -23 -30 -47 -51
-63 -55 -105 -24 -130 -36 -175 -83 -38 -39 -61 -53 -119 -72 -62 -21 -76 -30
-107 -71 -20 -26 -44 -50 -54 -53 -11 -4 -43 -29 -72 -55 -29 -26 -62 -51 -72
-54 -11 -4 -35 -27 -53 -52 -18 -26 -48 -55 -66 -66 -18 -11 -49 -41 -67 -67
-29 -39 -45 -51 -98 -71 -47 -17 -80 -38 -124 -80 -95 -92 -157 -146 -192
-167 -18 -11 -47 -39 -63 -62 -17 -23 -46 -51 -64 -62 -19 -11 -46 -37 -61
-59 -15 -22 -42 -48 -61 -59 -18 -11 -45 -38 -59 -61 -14 -23 -41 -50 -60 -61
-19 -12 -43 -35 -54 -52 -31 -51 -62 -73 -126 -93 -43 -13 -68 -28 -90 -53
-16 -19 -43 -46 -59 -60 -16 -14 -55 -51 -87 -81 -32 -30 -71 -66 -86 -81 -16
-14 -39 -37 -53 -52 -27 -29 -102 -105 -140 -141 -12 -11 -47 -46 -78 -76 -32
-31 -69 -63 -83 -72 -15 -9 -39 -37 -55 -62 -16 -25 -41 -51 -57 -57 -15 -6
-41 -32 -57 -58 -17 -26 -45 -55 -63 -64 -18 -10 -45 -38 -61 -64 -16 -25 -44
-54 -62 -65 -18 -11 -45 -40 -59 -65 -15 -24 -42 -54 -61 -65 -18 -11 -49 -42
-69 -69 -19 -27 -41 -49 -49 -49 -8 0 -25 -14 -38 -32 -13 -17 -50 -59 -84
-92 -33 -34 -68 -73 -77 -88 -10 -15 -30 -34 -46 -42 -16 -9 -45 -38 -65 -66
-20 -28 -48 -56 -61 -62 -14 -6 -39 -33 -56 -59 -17 -26 -46 -57 -64 -68 -19
-11 -46 -38 -60 -61 -15 -23 -40 -49 -56 -58 -16 -10 -43 -41 -60 -69 -17 -29
-43 -62 -60 -73 -16 -12 -40 -40 -54 -63 -13 -24 -38 -56 -56 -72 -17 -17 -40
-48 -51 -69 -11 -21 -39 -60 -63 -85 -23 -25 -46 -57 -50 -71 -19 -65 -48
-118 -72 -131 -48 -26 -73 -66 -73 -120 0 -61 -21 -104 -61 -124 -16 -9 -43
-36 -59 -61 -31 -50 -99 -129 -172 -202 -51 -52 -68 -85 -68 -139 0 -44 -24
-85 -62 -108 -16 -9 -45 -41 -63 -69 -18 -29 -45 -60 -59 -70 -15 -9 -40 -41
-57 -70 -16 -30 -45 -66 -64 -81 -19 -14 -37 -36 -39 -48 -25 -120 -28 -127
-84 -186 -32 -33 -84 -89 -117 -126 -63 -70 -102 -109 -147 -149 -22 -19 -28
-34 -28 -65 0 -59 -27 -119 -62 -137 -16 -8 -44 -39 -63 -69 -19 -29 -48 -63
-65 -75 -39 -28 -60 -69 -60 -117 0 -46 -31 -100 -64 -113 -13 -4 -38 -32 -56
-62 -18 -29 -53 -74 -79 -99 -100 -102 -139 -146 -169 -189 -17 -25 -47 -60
-66 -79 -23 -21 -38 -46 -42 -70 -10 -63 -26 -91 -70 -127 -24 -20 -55 -55
-69 -79 -14 -24 -38 -51 -53 -61 -16 -9 -41 -36 -56 -60 -16 -25 -43 -56 -62
-70 -19 -15 -44 -43 -56 -63 -12 -20 -43 -56 -68 -81 -40 -38 -49 -53 -55 -94
-9 -68 -22 -92 -65 -120 -20 -13 -50 -45 -65 -69 -16 -25 -41 -52 -57 -61 -15
-9 -42 -41 -60 -71 -17 -29 -42 -58 -55 -64 -12 -6 -38 -32 -57 -58 -19 -26
-51 -60 -70 -75 -19 -15 -46 -49 -61 -75 -14 -27 -38 -56 -53 -67 -15 -10 -41
-36 -57 -58 -17 -22 -43 -47 -58 -56 -16 -10 -38 -33 -50 -52 -19 -31 -73 -94
-170 -197 -16 -18 -33 -33 -38 -33 -4 0 -22 -20 -38 -44 -27 -39 -114 -117
-193 -171 -15 -11 -44 -44 -63 -73 -20 -28 -40 -52 -46 -52 -5 0 -39 -27 -74
-60 -35 -33 -69 -60 -75 -60 -6 0 -26 -25 -45 -55 -20 -30 -48 -62 -63 -70
-15 -8 -65 -56 -112 -105 -141 -149 -246 -254 -274 -273 -21 -15 -26 -26 -26
-62 l0 -45 110 0 110 0 0 34 c0 60 32 85 118 92 l73 7 50 58 50 57 73 7 c84 8
81 7 121 60 41 57 52 62 120 67 49 3 74 12 141 52 45 26 94 60 110 77 15 16
33 29 40 29 7 0 30 21 51 46 21 25 52 53 68 61 17 8 50 35 75 60 138 135 190
183 200 183 5 0 24 23 41 50 17 28 44 57 59 65 16 8 39 29 51 47 22 32 60 73
189 204 33 34 60 66 60 72 0 11 53 69 176 194 51 52 57 61 63 115 9 71 23 98
62 118 17 9 42 36 58 59 15 24 49 67 76 95 28 28 73 75 101 105 28 29 61 70
73 93 13 22 35 47 51 56 32 19 60 72 60 114 0 38 32 89 68 107 16 8 43 37 61
64 17 27 43 55 58 63 14 8 41 38 60 66 18 29 47 60 63 68 16 8 43 35 60 60 17
25 44 52 59 60 16 8 43 37 60 64 16 28 44 57 60 66 17 8 43 34 60 58 16 24 46
56 65 71 20 15 45 45 56 66 11 21 35 51 54 65 19 15 49 48 66 75 17 27 40 52
51 55 11 4 37 30 59 59 21 28 53 62 69 74 17 12 39 39 50 60 11 20 27 44 38
54 72 65 194 189 213 217 13 19 45 56 70 81 55 56 144 151 229 245 120 131
296 316 465 488 93 95 181 190 196 212 15 22 73 80 129 129 56 49 105 95 109
102 8 15 290 310 482 504 69 70 159 164 200 210 41 45 97 98 125 117 27 19 65
45 84 59 27 19 46 24 97 24 56 0 68 -4 95 -28 l32 -28 -1 -397 c0 -267 -4
-403 -12 -416 -6 -12 -28 -30 -50 -41 -59 -30 -64 -46 -56 -184 7 -138 2 -156
-58 -196 -59 -41 -65 -59 -66 -198 l0 -124 -32 -29 c-18 -16 -45 -40 -60 -53
-26 -23 -28 -31 -28 -96 0 -78 8 -65 -92 -154 -25 -22 -28 -32 -28 -85 0 -77
-15 -108 -62 -132 -49 -25 -61 -50 -59 -121 1 -71 -8 -91 -60 -123 -22 -14
-53 -47 -69 -73 -16 -27 -41 -54 -55 -62 -14 -7 -39 -35 -56 -62 -18 -27 -44
-55 -59 -63 -16 -8 -42 -37 -59 -65 -17 -28 -47 -60 -65 -71 -19 -11 -45 -35
-57 -55 -13 -19 -41 -45 -61 -59 -20 -13 -51 -45 -68 -70 -17 -25 -44 -52 -60
-60 -16 -8 -41 -35 -56 -60 -14 -25 -39 -52 -55 -60 -16 -9 -47 -40 -69 -70
-22 -30 -47 -55 -55 -55 -7 0 -37 -27 -66 -60 -29 -33 -60 -60 -69 -60 -32 0
-114 -51 -178 -111 -34 -32 -66 -59 -70 -59 -4 0 -20 -19 -37 -41 -16 -23 -47
-50 -67 -60 -20 -10 -50 -35 -65 -54 -16 -20 -54 -49 -88 -65 -66 -32 -172
-110 -250 -185 -27 -26 -66 -57 -85 -69 -40 -25 -49 -55 -23 -78 27 -25 236
-34 327 -14 59 13 76 22 115 59 44 43 49 45 121 51 123 10 197 35 248 83 37
34 56 43 105 52 34 6 79 23 106 41 26 16 63 33 82 37 19 3 48 16 64 28 17 13
40 26 51 29 12 4 45 29 73 56 29 28 57 50 63 50 38 0 135 49 174 87 24 24 51
43 58 43 8 0 38 26 66 59 33 39 61 61 80 65 54 10 118 45 147 80 15 18 46 45
68 58 23 14 53 42 68 62 16 20 41 43 56 51 16 8 43 37 60 64 16 28 43 57 58
65 16 8 44 37 62 64 19 27 49 57 66 67 42 22 53 46 58 124 3 63 4 64 59 115
31 28 66 68 78 89 12 21 35 44 51 52 39 20 49 44 49 110 0 71 20 119 59 139
46 25 61 53 61 121 0 58 26 125 48 125 5 0 21 11 36 25 23 21 26 32 26 86 0
72 28 140 67 166 39 26 55 70 60 162 7 142 9 151 65 202 58 53 67 82 68 220 0
72 4 91 21 113 11 14 26 26 34 26 7 0 25 14 40 32 24 29 26 36 20 89 -8 69 0
88 65 149 43 40 49 51 55 102 4 31 4 79 0 106 -10 74 8 127 54 160 60 42 65
54 71 197 5 138 13 162 55 185 36 19 58 64 50 102 -11 48 13 115 61 166 54 57
65 100 73 283 7 147 16 176 69 203 37 19 52 55 52 124 0 62 23 112 60 132 11
6 34 37 50 70 19 37 41 65 59 74 15 8 36 28 46 43 28 41 192 201 215 208 11 3
20 10 20 15 0 8 111 128 180 195 11 11 46 45 78 76 31 30 69 63 85 72 15 10
38 34 52 55 13 20 42 48 63 61 21 13 49 39 62 57 12 19 39 43 59 55 20 11 49
38 65 60 15 22 45 51 66 64 20 13 46 39 58 59 11 19 39 46 61 60 22 14 47 38
55 53 24 47 58 70 124 83 55 11 68 18 95 53 18 22 43 49 57 61 13 12 47 44 75
72 27 28 63 58 78 66 15 8 45 36 65 63 34 44 43 50 109 68 66 17 76 24 118 73
26 30 52 54 58 54 7 0 38 26 69 57 32 32 72 72 90 89 18 17 44 43 58 57 139
144 153 154 218 167 58 12 67 17 110 68 25 30 56 58 69 63 13 5 35 26 50 48
16 22 45 49 65 61 21 11 51 40 69 64 35 50 52 59 133 76 62 13 65 15 231 179
52 51 67 60 109 66 68 9 89 21 126 71 18 23 45 48 60 54 15 6 43 30 61 53 43
54 52 59 128 74 60 11 69 17 120 71 52 55 60 59 124 71 61 12 72 18 104 57 20
23 49 48 65 55 15 6 46 33 68 60 36 42 50 50 118 70 61 19 84 31 117 65 22 23
54 48 71 57 17 9 43 33 57 55 32 46 51 56 134 72 53 11 68 19 109 61 45 46 50
48 118 55 70 7 72 8 121 60 41 43 63 57 123 78 51 18 88 39 124 71 27 25 58
45 68 45 41 0 135 42 175 79 28 26 61 44 101 55 32 10 67 20 77 22 10 3 40 25
67 49 44 39 54 43 119 50 67 7 72 9 111 51 47 51 62 59 142 68 54 7 61 11 103
61 45 52 47 53 113 59 37 4 93 16 125 27 31 10 63 19 71 19 8 0 33 16 56 35
44 36 52 40 135 50 28 4 65 13 84 21 18 8 44 14 58 14 30 0 60 15 95 48 20 18
48 28 105 38 76 13 80 15 129 69 l51 55 71 0 c95 0 276 35 334 66 30 15 62 23
86 22 25 -1 52 7 74 20 19 12 61 24 94 28 32 4 79 15 104 24 25 10 63 21 84
24 22 3 59 19 82 36 40 28 47 30 141 30 54 1 139 9 191 19 82 17 97 23 137 60
42 39 48 41 107 41 87 0 258 18 348 36 41 9 85 18 96 20 12 2 40 19 62 37 l40
34 254 6 253 7 50 56 50 55 540 8 c516 8 543 9 600 30 32 11 69 21 81 21 12 0
41 15 63 34 40 34 53 38 138 51 32 5 49 15 70 41 30 38 56 64 143 143 66 60
111 106 184 186 31 33 78 85 106 115 28 30 64 78 79 106 16 28 40 58 53 66 23
16 127 118 223 220 28 29 63 73 79 98 16 25 45 61 65 81 74 74 158 175 166
199 16 53 47 101 71 112 13 6 38 34 55 62 47 77 68 96 106 96 l33 0 0 340 0
340 -33 0 c-37 0 -73 31 -101 86 -8 18 -32 45 -53 62 -21 16 -51 48 -68 70
-16 22 -42 48 -58 57 -15 9 -34 30 -43 47 -13 26 -92 113 -164 183 -97 93
-220 225 -220 234 0 6 -19 24 -42 41 -56 41 -65 57 -77 131 -10 57 -15 68 -55
104 -24 22 -54 57 -66 78 -12 20 -37 49 -55 62 -18 14 -44 44 -59 68 -15 23
-42 52 -61 65 -19 12 -46 39 -59 60 -13 21 -40 50 -60 66 -20 15 -48 46 -62
67 -14 22 -40 49 -58 60 -18 10 -43 37 -55 60 -13 23 -38 50 -57 61 -18 11
-49 41 -68 68 -20 27 -48 56 -65 64 -16 9 -41 35 -56 59 -15 23 -43 53 -61 65
-19 12 -45 40 -59 63 -15 22 -41 49 -60 60 -19 11 -45 40 -59 64 -14 23 -41
52 -59 63 -19 11 -49 40 -67 66 -18 25 -38 46 -43 46 -6 0 -40 30 -78 68 -66
66 -132 127 -239 221 -34 30 -82 59 -125 76 -49 19 -87 43 -127 81 -31 30 -61
54 -67 54 -6 0 -29 16 -51 36 -61 55 -152 95 -239 103 -73 7 -75 8 -115 55
-43 49 -82 65 -154 66 -26 0 -45 11 -85 48 -67 63 -137 82 -302 82 -64 0 -124
4 -134 9 -10 6 -35 27 -57 49 -45 45 -51 46 -376 62 -244 11 -1102 -3 -1143
-19 -16 -7 -53 -16 -82 -21 -34 -6 -66 -20 -98 -44 l-47 -36 -176 0 c-226 -1
-319 -19 -366 -73 -17 -20 -41 -40 -53 -46 -12 -6 -75 -11 -140 -11 -131 0
-128 1 -187 -72 l-37 -48 -137 0 c-219 0 -234 -4 -293 -65 l-50 -53 -122 -7
c-77 -4 -142 -14 -177 -26 -30 -10 -62 -19 -72 -19 -10 0 -39 -19 -64 -42 -42
-39 -49 -42 -121 -48 l-76 -6 -46 -52 c-47 -53 -47 -53 -119 -59 l-73 -6 -50
-58 -51 -59 -61 0 c-99 -1 -202 -33 -252 -79 -34 -31 -52 -40 -96 -45 -30 -4
-92 -15 -139 -24 -75 -14 -90 -21 -131 -58 -41 -37 -52 -42 -115 -48 -68 -7
-70 -8 -124 -65 l-55 -58 -177 -1 c-233 -2 -322 -21 -381 -81 l-39 -41 -112 0
c-294 -1 -691 -39 -794 -77 -33 -12 -48 -13 -67 -5 -28 13 -45 8 -94 -25 l-34
-23 -904 0 c-662 0 -910 3 -926 11 -12 7 -35 23 -50 35 -19 16 -41 24 -67 24
-21 0 -51 5 -66 10 -72 28 -307 44 -721 49 -57 1 -65 4 -108 41 -30 26 -56 40
-74 40 -15 0 -50 7 -77 15 -28 9 -127 21 -233 27 l-185 12 -41 44 c-39 42 -46
45 -126 58 -46 7 -106 14 -134 14 -44 0 -54 4 -91 41 -34 33 -53 43 -110 55
-92 21 -195 33 -274 34 -62 0 -66 1 -110 44 -41 39 -53 45 -130 60 -47 9 -134
16 -193 16 -119 0 -115 -2 -180 83 -27 36 -30 37 -95 38 -37 0 -100 4 -139 7
-68 7 -76 11 -111 47 -35 37 -45 41 -133 58 -52 9 -113 17 -136 17 -34 0 -48
7 -87 42 -40 37 -56 44 -133 60 -48 10 -137 21 -198 24 l-110 6 -46 51 c-42
45 -53 51 -100 58 -30 4 -89 8 -132 8 l-78 1 -49 46 c-53 50 -99 64 -250 79
-62 6 -81 12 -108 36 -18 16 -45 31 -60 35 -15 3 -54 15 -87 26 -42 15 -96 23
-181 27 l-122 6 -46 43 c-25 23 -56 42 -68 42 -13 0 -41 7 -63 14 -23 8 -100
18 -173 22 l-132 7 -41 35 c-29 25 -56 38 -88 43 -25 4 -82 14 -126 23 -44 8
-170 19 -280 22 -195 7 -199 8 -222 32 -14 16 -23 37 -23 58 l0 34 -1480 0
-1480 0 0 -30z"/>
<path d="M46718 17183 c-2 -5 -4 -42 -3 -83 0 -90 14 -113 110 -180 35 -25 76
-63 90 -85 l26 -40 -5 -270 c-4 -148 -10 -380 -14 -515 -8 -234 -7 -250 14
-350 19 -86 22 -132 21 -255 -2 -138 -4 -152 -25 -182 -39 -54 -80 -61 -307
-48 l-130 8 -105 -38 c-58 -21 -134 -41 -170 -45 -36 -3 -94 -19 -130 -35 -64
-27 -70 -28 -320 -36 -174 -5 -277 -13 -325 -24 -100 -23 -174 -34 -217 -32
-26 1 -53 -9 -96 -36 -32 -20 -72 -41 -88 -48 -18 -7 -180 -14 -439 -19 -447
-10 -556 -17 -835 -56 -115 -16 -206 -24 -240 -21 -35 4 -99 -2 -177 -16
l-123 -21 -117 20 c-65 10 -125 18 -133 17 -76 -11 -140 -3 -213 26 -57 23
-94 31 -138 31 -60 0 -120 -18 -134 -40 -15 -24 20 -61 93 -97 40 -21 83 -50
93 -65 11 -15 45 -39 77 -55 l57 -28 780 -3 c794 -3 947 2 1057 35 28 8 80 16
117 17 56 2 79 9 156 49 l90 47 275 10 c225 7 289 13 350 29 41 11 102 21 135
21 42 0 70 6 93 20 123 75 103 72 435 80 258 7 313 11 377 29 41 11 94 21 118
21 37 0 48 -6 86 -44 51 -51 65 -102 46 -176 -8 -32 -13 -526 -17 -1755 -4
-1430 -7 -1714 -19 -1737 -8 -16 -37 -38 -76 -57 -43 -21 -74 -45 -98 -75 -41
-54 -76 -71 -132 -63 -36 5 -50 15 -98 68 -52 58 -60 63 -110 70 -182 26 -270
-7 -270 -99 0 -61 41 -112 136 -171 22 -13 61 -50 87 -82 27 -33 67 -69 91
-81 25 -13 65 -49 91 -81 31 -39 65 -67 103 -86 33 -17 73 -48 95 -75 21 -26
60 -57 87 -71 26 -13 58 -38 71 -56 59 -78 85 -99 126 -99 47 0 77 28 116 105
14 28 41 66 61 85 66 63 68 71 67 294 0 120 4 217 11 241 6 23 15 200 20 425
5 212 13 554 18 760 6 206 13 843 16 1414 l5 1039 -22 96 c-30 133 -31 225 -1
272 31 51 70 65 162 59 216 -14 630 8 780 42 25 5 126 14 225 18 99 5 214 16
255 24 104 21 466 21 570 0 41 -8 152 -19 245 -23 94 -5 237 -19 318 -32 138
-22 149 -22 175 -7 49 30 66 63 67 128 0 74 -23 107 -94 136 -29 12 -75 41
-104 65 -29 24 -59 50 -68 57 -10 7 -60 20 -112 28 -79 13 -208 14 -808 12
-653 -3 -719 -5 -768 -22 -29 -9 -78 -21 -108 -26 -37 -6 -77 -23 -126 -55
l-71 -45 -105 0 c-58 0 -137 -7 -176 -15 -151 -33 -218 -16 -261 67 -21 40
-18 178 6 268 18 70 20 111 20 605 0 314 -4 544 -10 564 -14 51 -49 96 -101
129 -25 17 -71 53 -100 80 -30 27 -64 54 -77 61 -19 10 -23 19 -20 49 l3 37
-142 3 c-78 1 -143 -1 -145 -5z"/>
<path d="M78010 17032 c-81 -40 -76 -114 10 -151 27 -12 55 -21 62 -21 8 0 27
-14 44 -31 28 -29 29 -34 27 -116 -2 -54 3 -105 12 -136 23 -78 20 -175 -8
-228 -28 -53 -85 -89 -142 -89 -22 0 -69 -5 -105 -10 -61 -10 -68 -14 -125
-72 -33 -33 -79 -70 -103 -80 -23 -10 -49 -30 -58 -44 -15 -22 -15 -26 0 -49
9 -14 24 -25 34 -26 9 0 26 -2 37 -5 11 -2 106 -8 210 -12 191 -9 209 -13 285
-57 14 -8 42 -22 63 -31 l37 -16 0 -137 c0 -75 3 -173 7 -218 l6 -82 -34 -32
c-18 -17 -73 -51 -121 -75 -64 -32 -94 -54 -110 -79 -13 -20 -33 -38 -46 -41
-37 -10 -114 4 -144 26 -35 26 -71 25 -128 -2 -69 -32 -212 -53 -468 -67 -177
-10 -224 -21 -230 -54 -7 -33 29 -56 139 -92 94 -30 122 -35 206 -35 90 0 103
3 163 32 l65 33 163 -3 c140 -2 174 0 237 18 61 17 81 19 120 10 64 -14 92
-35 126 -94 43 -75 40 -127 -10 -198 -21 -31 -42 -65 -46 -77 -7 -24 -70 -102
-94 -116 -9 -5 -86 -13 -171 -16 -189 -8 -243 -22 -357 -93 l-88 -55 -111 -7
c-170 -10 -208 16 -226 155 -7 51 -20 95 -41 134 -40 77 -139 167 -213 196
-31 12 -78 37 -103 55 -63 46 -115 60 -152 40 -57 -29 -47 -86 21 -129 70 -44
235 -324 270 -457 13 -51 55 -158 81 -210 10 -20 39 -51 64 -68 25 -17 57 -48
70 -68 22 -34 24 -46 24 -158 -1 -103 2 -127 20 -162 19 -38 67 -82 89 -82 5
0 38 -32 72 -71 104 -117 148 -122 219 -25 23 31 49 59 59 64 9 5 116 12 237
16 207 6 222 5 252 -14 18 -10 40 -34 49 -51 15 -29 15 -41 4 -100 -15 -79 -8
-204 15 -292 20 -73 14 -92 -38 -119 -38 -19 -65 -22 -267 -30 -185 -6 -244
-12 -330 -33 -63 -14 -180 -31 -295 -40 -104 -9 -226 -20 -270 -25 -44 -5
-163 -18 -265 -30 -102 -11 -203 -24 -226 -30 -65 -15 -430 -32 -546 -24
l-106 6 -16 -31 c-10 -18 -14 -41 -10 -55 12 -47 30 -54 174 -59 117 -3 144
-8 205 -31 l70 -28 225 5 c198 4 236 8 321 30 122 32 250 41 414 29 l130 -10
35 -39 c19 -22 61 -58 92 -81 32 -24 64 -57 74 -77 21 -44 64 -81 130 -110 83
-37 98 -73 70 -166 -13 -43 -13 -54 9 -140 13 -52 27 -119 31 -149 9 -79 33
-179 50 -213 20 -38 106 -77 184 -84 57 -6 60 -5 95 30 l35 35 0 292 c0 345 1
341 -104 390 -41 20 -76 47 -109 84 -30 35 -61 59 -85 67 -20 6 -72 29 -114
50 -43 22 -91 39 -108 39 -77 0 -136 146 -66 164 13 3 44 3 68 0 34 -4 59 1
118 24 71 28 85 30 260 35 120 3 226 13 302 26 122 21 244 56 254 72 7 13 51
11 72 -2 14 -9 28 -7 63 11 85 42 123 51 214 51 124 0 186 -29 213 -102 26
-68 36 -218 23 -355 -9 -97 -12 -346 -10 -884 2 -725 2 -751 -17 -771 -30 -33
-47 -39 -182 -58 -108 -16 -168 -18 -404 -14 -250 5 -280 4 -303 -11 -19 -13
-25 -24 -23 -44 2 -22 15 -33 76 -63 41 -20 95 -57 120 -81 26 -24 59 -50 74
-58 16 -7 51 -40 80 -73 28 -32 73 -72 99 -88 27 -17 66 -55 91 -89 25 -35 57
-67 78 -76 19 -9 50 -30 68 -47 26 -26 32 -38 32 -74 l0 -43 115 0 115 0 0 43
c0 49 28 85 89 116 41 21 63 49 97 121 12 26 44 66 73 91 55 47 54 45 107 234
16 58 18 336 3 600 -21 388 -28 482 -38 515 -6 19 -11 77 -11 128 0 62 -7 120
-21 174 -15 59 -20 98 -16 138 5 44 1 73 -19 135 -23 71 -25 90 -19 172 5 73
2 119 -15 217 -18 103 -20 132 -10 161 25 76 128 119 285 118 55 0 163 0 240
0 359 0 423 0 615 -6 113 -3 320 -9 460 -12 281 -8 275 -6 366 -80 59 -48 56
-47 173 -70 69 -14 114 -16 248 -10 l163 7 0 69 0 69 -58 0 c-66 0 -82 8 -163
88 -63 61 -92 70 -214 72 -75 1 -65 -3 -204 94 -41 29 -74 38 -206 57 -41 5
-93 22 -126 39 -31 16 -84 34 -117 39 -33 5 -82 21 -108 34 -98 49 -245 60
-416 31 -95 -16 -97 -17 -227 -110 -23 -17 -51 -22 -134 -28 -150 -9 -268 -31
-374 -67 l-93 -32 -142 62 c-79 34 -177 78 -218 97 -89 40 -163 46 -201 16
l-22 -19 23 -57 c43 -103 10 -134 -182 -173 -101 -20 -127 -22 -157 -12 -62
20 -111 52 -133 87 l-20 33 25 82 c30 94 53 206 60 289 7 70 29 110 77 137 33
18 54 21 161 21 68 0 160 5 206 12 77 11 87 11 119 -7 19 -10 44 -33 55 -51
65 -106 152 -111 230 -13 18 23 51 49 74 59 23 10 66 44 96 75 32 35 74 67
105 81 34 15 67 41 95 74 27 32 66 63 100 80 35 18 73 49 103 85 27 31 69 66
95 80 30 15 63 44 89 79 29 38 60 64 102 87 73 39 90 67 90 147 0 76 26 118
97 152 99 49 108 68 91 200 -13 111 -42 212 -71 247 -12 15 -45 73 -72 127
-56 111 -102 162 -196 221 -135 85 -245 115 -418 115 l-132 0 -79 -75 -79 -75
-140 0 c-204 0 -288 -23 -356 -97 l-32 -35 -136 4 c-120 3 -139 5 -164 24
l-28 22 4 146 c2 118 0 161 -15 217 -23 90 -14 120 41 135 109 31 232 46 400
50 221 6 234 8 268 39 56 52 21 176 -61 219 -36 19 -142 46 -178 46 -15 0 -57
16 -93 36 -51 28 -81 38 -131 42 -36 2 -77 11 -92 18 -72 37 -115 129 -104
225 6 59 5 60 -33 98 -21 21 -53 66 -72 101 -30 57 -85 110 -114 110 -6 0 -33
23 -60 51 -28 28 -61 57 -75 64 -18 9 -211 45 -243 45 -1 0 -18 -8 -37 -18z
m1660 -1698 c199 -28 224 -52 235 -234 8 -138 -2 -185 -65 -309 -21 -42 -56
-130 -78 -196 -58 -174 -83 -224 -143 -287 -30 -30 -75 -80 -101 -111 -66 -76
-94 -87 -256 -98 -75 -5 -173 -18 -217 -29 -44 -10 -98 -22 -120 -26 -22 -4
-76 -23 -119 -42 -67 -29 -88 -33 -132 -30 -91 8 -124 57 -124 185 0 126 24
184 93 219 18 10 71 16 150 19 219 8 313 21 361 49 68 40 126 120 126 175 0
30 -9 40 -115 119 -119 89 -130 94 -204 93 -38 0 -103 -8 -143 -17 -181 -41
-204 -32 -224 92 -18 110 -17 185 2 212 21 30 77 57 149 71 64 12 165 50 261
99 55 28 69 30 209 37 83 3 166 10 185 15 56 13 147 11 270 -6z m-1525 -1018
c52 -22 65 -52 76 -170 17 -179 -10 -229 -145 -271 -49 -14 -109 -25 -142 -25
-33 0 -88 -10 -124 -22 -88 -29 -253 -31 -322 -5 -57 22 -95 65 -103 115 -3
20 -15 71 -25 113 -28 106 -26 125 13 164 41 41 89 55 187 55 96 0 220 16 318
40 93 23 220 25 267 6z"/>
<path d="M56723 17021 c-70 -33 -90 -98 -54 -176 21 -48 37 -62 105 -96 29
-14 61 -40 74 -60 22 -32 23 -40 17 -134 -6 -84 -4 -114 13 -180 12 -44 23
-100 27 -125 3 -25 27 -83 52 -130 l47 -85 -3 -314 c-3 -336 -9 -404 -40 -454
-74 -120 -116 -360 -94 -530 17 -123 -2 -162 -105 -222 -53 -30 -70 -62 -88
-160 -12 -67 -14 -122 -10 -215 8 -151 -2 -175 -88 -216 -81 -38 -97 -60 -106
-144 -6 -59 -13 -77 -36 -101 -35 -37 -35 -36 -184 -48 -69 -6 -147 -17 -175
-25 -27 -9 -70 -18 -94 -21 -25 -3 -64 -18 -88 -33 -113 -70 -119 -72 -244
-72 -154 0 -269 -16 -356 -51 -44 -18 -90 -29 -120 -29 -34 0 -69 -10 -118
-33 -58 -28 -87 -35 -165 -41 -193 -14 -290 -33 -370 -74 -70 -34 -80 -37
-152 -34 -63 2 -87 -2 -139 -23 -34 -14 -79 -25 -99 -25 -60 0 -149 -20 -227
-51 -48 -19 -91 -29 -126 -29 -39 0 -71 -9 -122 -33 -62 -30 -83 -35 -180 -40
-61 -4 -141 -16 -180 -27 -38 -11 -80 -20 -92 -20 -24 0 -83 -24 -123 -51 -14
-9 -53 -27 -88 -39 -86 -31 -112 -53 -112 -95 0 -25 8 -40 32 -60 l33 -28 170
7 c176 7 248 20 347 62 34 14 77 24 105 24 34 0 68 10 113 32 63 30 71 32 235
38 170 7 264 24 329 57 17 9 65 19 106 24 57 5 92 16 145 43 l70 36 145 0
c155 0 248 15 327 50 27 12 77 24 113 26 47 4 85 14 135 39 69 33 73 33 235
39 137 4 187 10 295 36 71 17 148 42 171 55 93 55 205 53 241 -2 21 -32 21
-99 0 -139 -9 -16 -29 -45 -47 -64 -69 -77 -93 -128 -100 -209 -8 -94 -30
-141 -82 -172 -82 -49 -98 -69 -108 -135 -11 -81 -42 -139 -91 -172 -91 -61
-99 -72 -110 -147 -12 -87 -42 -134 -112 -179 -70 -45 -76 -54 -87 -122 -12
-71 -48 -127 -99 -153 -21 -11 -71 -56 -111 -100 -39 -44 -84 -84 -98 -89 -15
-5 -57 -39 -95 -76 -37 -36 -84 -73 -104 -81 -20 -9 -62 -36 -92 -62 -31 -25
-80 -57 -110 -70 -30 -13 -74 -42 -98 -63 -25 -21 -72 -49 -105 -62 -75 -29
-107 -65 -90 -102 27 -60 75 -67 342 -56 138 6 162 10 212 32 31 14 82 34 115
43 32 9 81 29 109 45 28 15 70 34 93 41 32 9 56 28 93 70 32 37 69 66 102 82
39 18 67 43 105 91 28 36 62 68 74 71 75 23 126 92 112 154 -7 31 14 93 43
124 9 11 35 28 57 38 82 40 89 49 95 137 7 96 34 140 105 171 73 32 95 61 95
124 0 98 29 149 104 186 100 49 111 73 111 237 l0 133 30 31 c16 17 41 33 55
37 96 23 131 72 112 159 -19 94 4 137 101 184 67 33 88 63 96 141 13 117 46
139 212 139 64 0 181 10 282 25 95 14 187 27 205 29 18 3 68 25 110 50 l76 46
191 0 c115 0 238 6 310 16 66 8 167 21 225 28 58 8 132 21 164 31 40 12 74 15
105 11 40 -5 55 -1 129 35 l83 42 712 -1 c801 0 876 4 929 55 43 41 58 75 58
133 0 44 -4 55 -30 78 -16 15 -51 35 -77 44 -26 10 -76 40 -109 68 -58 47 -67
51 -155 66 -71 13 -128 15 -234 11 -217 -9 -473 -36 -546 -58 -38 -11 -93 -18
-131 -18 -58 1 -74 -3 -130 -35 l-65 -36 -129 0 c-71 0 -212 -7 -314 -15 -173
-13 -237 -24 -267 -48 -7 -5 -46 -13 -86 -17 -52 -6 -92 -18 -138 -42 l-64
-33 -220 -6 c-181 -6 -233 -10 -294 -28 -41 -11 -84 -21 -95 -21 -12 0 -45
-15 -75 -33 -111 -67 -109 -66 -223 -67 -136 0 -168 13 -203 84 -50 100 -25
218 60 276 48 33 50 38 61 106 3 27 15 70 25 97 48 123 56 222 33 400 -8 61
-2 83 41 147 20 29 40 74 46 99 5 25 16 64 25 86 8 22 19 63 23 90 5 28 24 91
43 140 l33 90 0 580 c0 319 -4 597 -8 618 -9 43 -43 77 -108 110 -24 12 -54
38 -67 57 -22 32 -23 42 -18 107 6 69 6 73 -21 103 -37 41 -69 47 -282 55
-162 5 -179 4 -218 -14z"/>
<path d="M70350 16720 c-58 -4 -123 -5 -145 -3 -56 7 -308 -14 -400 -33 -42
-9 -86 -14 -97 -11 -24 7 -76 -15 -114 -46 -53 -44 -90 -57 -161 -57 -98 0
-303 -27 -327 -44 -12 -7 -41 -30 -66 -51 -86 -73 -123 -82 -383 -94 l-157 -7
-28 -30 c-76 -83 -116 -98 -302 -114 -324 -27 -307 -25 -353 -57 -71 -51 -99
-61 -192 -67 -140 -10 -146 -12 -204 -67 -94 -87 -79 -83 -326 -89 -218 -5
-220 -6 -275 -34 -30 -16 -86 -35 -124 -43 -38 -8 -93 -25 -123 -39 -31 -13
-66 -24 -80 -24 -13 0 -59 -7 -101 -15 -84 -17 -125 -47 -115 -84 7 -29 22
-38 89 -56 97 -27 219 -22 634 25 52 6 125 19 161 30 40 12 91 19 130 18 55
-1 73 3 134 34 l70 36 175 6 c96 4 198 9 226 12 72 8 132 -11 173 -54 53 -57
71 -92 71 -143 0 -30 7 -55 19 -70 10 -13 32 -51 49 -84 38 -73 67 -108 107
-128 17 -8 43 -29 60 -47 26 -28 30 -39 33 -105 5 -98 -16 -137 -90 -162 -32
-11 -71 -36 -102 -66 -88 -84 -96 -87 -228 -87 -116 0 -285 -22 -322 -42 -10
-6 -38 -28 -61 -49 -22 -21 -54 -43 -69 -49 -35 -13 -241 -13 -266 0 -10 5
-27 25 -39 43 -17 28 -19 43 -14 104 5 63 3 75 -16 102 -43 61 -145 62 -192 3
-17 -22 -20 -35 -15 -72 19 -131 19 -138 -3 -182 -11 -24 -34 -52 -50 -63 -41
-27 -55 -66 -85 -240 -42 -249 -49 -340 -42 -590 3 -126 6 -245 6 -264 0 -49
-32 -94 -90 -125 -62 -34 -80 -59 -80 -114 0 -58 23 -98 68 -121 35 -18 86
-66 122 -117 42 -57 65 -59 198 -22 70 20 75 24 155 111 45 49 99 101 120 114
26 16 47 41 63 76 l25 52 -2 458 -2 458 28 29 c33 35 52 42 175 70 131 29 160
39 195 65 58 43 89 52 198 59 85 5 122 12 170 32 113 48 134 51 175 29 22 -12
45 -37 60 -65 20 -39 22 -53 17 -105 -4 -33 -11 -935 -15 -2005 -5 -1070 -12
-1985 -15 -2034 -7 -96 3 -139 38 -157 64 -35 131 -27 168 19 19 24 20 34 14
87 -16 134 -6 162 77 217 67 45 71 54 88 233 7 66 16 154 20 195 5 41 9 839 9
1772 1 1489 -1 1705 -14 1763 -12 51 -13 75 -5 105 15 57 63 107 113 121 23 6
72 30 109 53 l67 43 173 6 c163 6 184 9 351 51 200 52 240 55 300 25 84 -42
116 -104 127 -253 5 -61 23 -167 39 -236 17 -69 36 -147 42 -173 10 -45 9 -55
-21 -135 -45 -120 -80 -168 -144 -198 -28 -13 -56 -24 -61 -24 -6 0 -35 -25
-65 -56 -81 -82 -92 -86 -218 -78 -90 5 -113 4 -140 -10 -96 -49 -70 -134 51
-167 25 -7 56 -29 90 -64 32 -33 73 -63 107 -78 85 -37 96 -54 92 -148 -2 -45
2 -88 8 -100 7 -11 45 -36 86 -55 116 -53 131 -93 98 -265 -8 -45 -13 -97 -9
-115 8 -48 56 -84 109 -84 51 0 82 21 126 85 22 32 47 52 93 74 72 34 93 63
83 113 -26 135 -17 171 59 234 48 40 65 76 65 133 0 20 6 46 14 57 19 27 44
115 56 200 5 40 10 374 10 784 1 818 10 746 -98 790 -39 16 -81 45 -120 82
-33 31 -72 60 -88 64 -16 4 -209 8 -429 8 -493 1 -580 -10 -652 -86 -56 -59
-92 -70 -224 -66 l-119 3 -32 33 -33 32 0 238 0 237 -38 50 c-53 71 -69 109
-58 139 15 37 49 64 105 82 28 9 81 34 118 56 117 70 163 79 418 83 124 3 254
9 290 15 95 14 242 12 377 -6 381 -50 645 -27 768 65 28 21 76 50 107 65 31
15 63 37 72 51 26 40 68 75 116 96 57 25 80 47 80 74 0 28 -23 48 -84 74 -26
12 -75 46 -109 76 -33 30 -70 55 -81 55 -12 0 -68 4 -126 9 -176 16 -290 19
-400 11z"/>
<path d="M80202 16675 c-18 -13 -22 -25 -20 -53 2 -29 11 -41 48 -67 25 -17
59 -53 75 -81 17 -27 71 -89 121 -139 104 -102 139 -153 154 -222 13 -56 23
-73 104 -172 33 -41 74 -100 91 -132 21 -40 54 -78 108 -124 117 -99 156 -108
217 -47 40 40 70 117 70 181 0 20 -12 71 -26 113 -28 85 -58 120 -142 162 -46
24 -101 86 -121 139 -5 14 -21 33 -35 44 -14 10 -56 47 -93 81 -38 35 -86 73
-107 84 -21 11 -66 47 -99 80 -33 33 -75 67 -93 74 -19 8 -60 31 -91 51 -67
42 -126 53 -161 28z"/>
<path d="M33902 16646 c-61 -16 -82 -45 -82 -113 0 -48 4 -58 30 -81 46 -42
56 -52 140 -142 44 -47 89 -94 100 -105 12 -11 47 -46 78 -78 33 -33 72 -62
92 -68 19 -6 125 -12 235 -15 216 -4 315 8 365 46 23 17 25 26 29 116 4 126
-8 167 -58 199 -21 13 -48 39 -59 58 -39 62 -58 72 -131 72 -36 0 -150 1 -253
3 l-188 2 -37 50 c-26 35 -48 53 -73 60 -46 13 -134 11 -188 -4z"/>
<path d="M64567 16556 c-102 -20 -158 -93 -142 -185 13 -77 51 -96 205 -106
l115 -7 60 -63 c41 -43 78 -72 116 -89 31 -13 66 -37 78 -52 20 -25 22 -36 16
-100 -7 -70 -6 -72 25 -107 19 -23 47 -41 71 -47 22 -6 54 -24 72 -40 l32 -28
1 -219 c1 -134 6 -237 13 -268 7 -27 16 -124 21 -215 5 -91 13 -181 19 -200
14 -45 14 -332 0 -385 -6 -22 -14 -112 -19 -200 -5 -88 -14 -185 -21 -215 -12
-50 -15 -388 -7 -590 3 -55 -1 -70 -21 -99 -13 -18 -38 -39 -55 -46 -17 -7
-44 -25 -59 -39 -22 -21 -27 -34 -27 -73 0 -26 -9 -78 -19 -115 -26 -90 -28
-121 -12 -199 10 -50 10 -76 1 -107 -10 -39 -22 -54 -120 -146 -17 -16 -35
-59 -58 -133 -30 -100 -33 -119 -30 -219 3 -102 1 -111 -21 -143 -13 -18 -43
-42 -66 -52 -23 -10 -53 -30 -68 -43 -24 -22 -27 -33 -27 -86 0 -101 -30 -152
-127 -216 -53 -36 -73 -70 -73 -126 0 -59 -69 -168 -107 -168 -7 0 -33 -19
-57 -42 -98 -95 -75 -218 40 -218 42 0 83 29 116 81 24 39 43 56 85 76 37 18
69 43 100 82 25 31 65 68 89 83 25 16 66 58 94 98 28 38 66 79 83 92 52 35 96
88 107 127 5 20 10 72 10 117 0 68 4 87 23 115 21 31 36 43 119 94 57 35 69
72 66 216 -1 117 0 128 21 155 12 16 50 43 83 59 96 47 101 58 99 222 0 76 -4
176 -7 223 -5 78 -4 88 18 120 13 19 45 46 70 60 116 63 124 86 113 312 -11
234 -11 241 13 280 12 20 38 46 58 59 39 26 64 74 64 123 0 17 4 47 9 66 5 19
16 78 25 130 41 245 45 312 21 400 -15 57 -18 217 -6 340 3 36 2 128 -2 205
-7 118 -6 153 9 225 10 47 18 114 18 150 1 87 -17 114 -103 152 -99 45 -107
59 -103 200 2 64 -2 134 -7 156 -12 43 -51 79 -113 105 -21 9 -53 38 -81 75
-32 41 -62 67 -94 83 -27 12 -75 51 -108 85 -35 36 -73 66 -90 70 -31 8 -90
42 -138 81 -15 12 -70 36 -122 53 -104 33 -182 37 -288 16z"/>
<path d="M75413 16550 c-40 -24 -53 -48 -53 -97 1 -50 26 -102 94 -193 61 -81
72 -115 61 -185 -8 -58 -25 -99 -76 -182 -58 -94 -69 -132 -69 -235 0 -103
-10 -126 -73 -173 -56 -41 -84 -86 -98 -156 -16 -83 -51 -127 -132 -167 -93
-47 -108 -68 -100 -145 4 -54 2 -66 -18 -91 -12 -16 -46 -39 -74 -52 -33 -14
-71 -43 -106 -81 -30 -33 -74 -71 -99 -85 -25 -14 -58 -45 -75 -69 -38 -54
-90 -105 -146 -144 -39 -28 -46 -38 -60 -96 -21 -88 -40 -113 -104 -139 -52
-21 -73 -38 -134 -111 -16 -19 -51 -46 -77 -59 -25 -14 -69 -51 -98 -83 -28
-32 -69 -70 -92 -83 -24 -14 -69 -59 -104 -105 -34 -44 -80 -91 -102 -105 -40
-26 -120 -103 -165 -161 -13 -18 -40 -37 -59 -43 -68 -23 -94 -92 -54 -143 41
-52 104 -43 196 28 27 20 64 38 87 42 21 3 60 21 87 39 26 18 64 40 84 48 19
8 66 39 103 69 38 30 84 60 104 66 20 6 63 36 97 66 33 30 80 64 105 74 31 14
60 38 94 80 30 38 65 69 92 83 25 12 70 47 101 79 31 31 77 67 102 79 71 33
91 60 99 136 8 82 28 111 102 147 41 20 68 42 93 77 19 26 45 55 59 64 37 24
104 21 140 -8 28 -23 30 -27 27 -88 -7 -154 -10 -3569 -3 -3617 10 -72 46
-106 104 -98 62 8 86 33 119 122 53 147 68 211 68 298 0 51 8 113 20 160 13
50 20 106 19 159 0 46 7 116 15 156 11 49 16 125 16 231 0 87 7 220 16 296 12
108 14 188 9 359 -3 122 -6 246 -5 276 15 1127 7 1593 -29 1725 -25 94 -27 97
-63 125 -105 81 -138 147 -118 236 17 75 36 101 112 151 46 30 89 70 116 106
24 32 61 66 82 77 20 10 51 31 69 45 28 24 31 32 31 84 0 70 26 115 85 147 53
30 78 56 126 136 23 40 52 74 69 83 16 8 60 42 97 76 37 33 84 69 104 79 44
23 106 91 115 126 12 46 -20 89 -82 115 -40 16 -69 38 -109 84 -38 43 -69 68
-99 79 -30 12 -60 35 -92 72 -33 39 -64 63 -103 80 -33 15 -79 48 -113 81 -55
55 -60 57 -125 64 -119 14 -175 11 -210 -11z"/>
<path d="M55130 16264 c-34 -14 -60 -48 -60 -79 0 -40 29 -67 96 -89 35 -11
65 -32 100 -67 27 -28 72 -62 99 -74 28 -13 68 -42 90 -65 22 -23 71 -57 108
-76 38 -18 78 -46 90 -61 11 -15 40 -47 63 -70 l41 -43 89 0 c49 0 139 5 199
11 125 13 169 32 191 85 32 76 12 114 -82 159 -60 28 -81 45 -114 90 -22 30
-53 61 -69 70 -16 8 -74 20 -127 26 -126 14 -149 24 -221 97 -53 55 -64 61
-118 71 -72 12 -354 23 -375 15z"/>
<path d="M16230 16139 c-47 -14 -70 -45 -70 -97 0 -59 -21 -102 -64 -136 -21
-15 -50 -49 -66 -75 -16 -25 -43 -59 -60 -75 -17 -16 -40 -47 -51 -70 -12 -22
-38 -59 -59 -81 -27 -29 -43 -58 -56 -104 -15 -53 -27 -74 -70 -117 -39 -39
-54 -62 -59 -90 -16 -98 -15 -97 -88 -161 -13 -13 -33 -39 -42 -60 -10 -20
-37 -56 -61 -80 -33 -34 -45 -56 -54 -96 -15 -69 -27 -90 -77 -126 -50 -36
-63 -73 -63 -184 0 -90 16 -138 57 -163 15 -10 54 -43 85 -74 31 -30 86 -82
121 -115 36 -33 72 -67 81 -75 53 -50 186 -193 186 -201 0 -5 13 -15 30 -24
16 -8 39 -34 51 -56 20 -40 59 -84 182 -207 57 -58 77 -98 77 -156 0 -21 11
-40 40 -67 49 -47 80 -96 80 -129 1 -43 28 -104 55 -124 15 -10 39 -46 55 -80
18 -38 41 -69 60 -81 49 -31 60 -62 61 -172 0 -54 4 -136 8 -183 l8 -84 47
-41 c57 -49 70 -90 58 -172 -5 -32 -6 -219 -3 -418 4 -198 3 -373 -1 -390 -4
-16 -31 -51 -58 -76 -55 -51 -52 -36 -54 -229 -1 -62 -5 -81 -24 -107 -13 -18
-28 -33 -33 -33 -6 0 -21 -12 -34 -26 -20 -22 -25 -37 -25 -81 0 -66 -22 -116
-64 -145 -47 -34 -55 -49 -56 -103 -1 -64 -29 -126 -70 -155 -39 -28 -60 -74
-60 -131 0 -37 -6 -48 -45 -86 -25 -24 -59 -66 -75 -94 -17 -27 -48 -67 -70
-88 -25 -24 -40 -47 -40 -62 0 -56 -23 -105 -70 -149 -26 -25 -58 -65 -73 -90
-14 -25 -39 -55 -56 -68 -30 -22 -44 -55 -56 -134 -4 -26 -16 -45 -43 -67 -80
-65 -82 -69 -82 -136 0 -69 -19 -103 -70 -130 -15 -8 -39 -34 -54 -59 -14 -25
-40 -54 -56 -66 -17 -12 -41 -43 -54 -68 -13 -26 -41 -63 -61 -82 -57 -54 -65
-78 -68 -194 -2 -95 -4 -107 -26 -130 -14 -14 -30 -26 -37 -26 -7 0 -24 -14
-39 -32 -24 -29 -26 -37 -20 -86 9 -71 -6 -106 -61 -138 -49 -29 -52 -36 -56
-146 l-3 -76 -52 -54 c-50 -53 -51 -57 -59 -134 -5 -43 -9 -308 -9 -589 0
-465 2 -517 19 -589 15 -63 27 -88 56 -120 43 -48 56 -79 69 -161 12 -77 109
-261 176 -335 17 -19 43 -55 57 -80 14 -25 40 -57 57 -72 17 -15 40 -45 51
-67 11 -22 38 -54 59 -72 22 -17 51 -49 65 -70 14 -20 38 -45 53 -54 15 -9 43
-39 61 -66 18 -28 48 -59 66 -70 19 -11 46 -37 61 -58 14 -22 40 -45 57 -52
18 -7 42 -32 60 -61 17 -27 42 -55 58 -63 15 -8 48 -35 74 -60 26 -25 52 -45
59 -45 7 0 33 -17 58 -38 26 -20 77 -55 114 -77 37 -22 91 -61 119 -86 29 -25
64 -49 78 -52 13 -4 39 -25 57 -47 17 -22 37 -40 44 -40 7 0 39 -11 72 -25 78
-32 166 -34 195 -5 40 40 19 112 -54 186 -96 98 -144 152 -171 191 -15 23 -40
51 -56 60 -15 10 -42 38 -59 61 -17 24 -44 51 -60 60 -15 9 -42 40 -59 69 -18
29 -45 60 -60 67 -15 8 -39 33 -54 55 -15 22 -41 51 -58 63 -17 13 -49 49 -70
80 -21 31 -48 59 -58 63 -11 3 -36 28 -56 55 -20 28 -49 57 -64 66 -39 23 -58
59 -66 126 -7 53 -12 62 -62 111 -47 46 -57 63 -74 122 -13 49 -29 79 -53 104
-19 20 -44 56 -54 81 -11 25 -36 61 -56 80 -20 19 -48 54 -61 77 -14 22 -40
51 -58 62 -47 29 -57 58 -57 161 0 108 -18 161 -65 190 -55 34 -57 47 -57 407
0 180 1 336 1 346 1 9 19 37 41 61 45 48 60 102 60 211 0 78 21 130 70 175 43
41 58 83 66 185 7 92 19 120 60 144 19 11 47 41 63 66 16 25 50 65 75 89 44
40 46 45 46 97 0 67 14 96 62 129 21 14 51 46 68 73 16 26 41 52 54 57 13 5
38 29 55 53 17 25 49 59 70 77 22 17 50 49 63 71 12 21 36 48 53 58 18 10 45
37 61 59 16 22 42 48 57 57 16 9 44 39 64 66 19 28 48 56 63 64 15 8 41 36 59
63 17 27 43 55 57 63 15 7 43 39 64 69 21 30 49 62 64 69 14 8 26 18 26 22 0
5 30 38 66 75 36 37 77 84 90 105 13 21 35 46 48 54 14 9 41 40 60 68 20 29
45 58 56 64 10 7 34 36 53 65 19 29 52 71 74 93 28 28 45 57 57 97 12 42 26
65 55 90 21 18 52 53 69 78 17 25 42 56 57 70 15 14 40 50 56 80 31 57 74 121
88 130 16 9 41 100 41 146 0 57 22 109 52 124 57 30 68 50 68 119 0 77 25 139
62 159 48 26 61 65 60 176 -1 124 9 157 58 196 61 48 64 67 64 405 1 345 -12
450 -63 515 -49 62 -58 90 -64 201 -5 115 -15 142 -70 201 -40 43 -57 99 -57
195 -1 101 -13 142 -54 177 -42 36 -66 98 -66 168 0 46 -3 53 -44 92 -58 54
-66 73 -66 147 l0 63 -57 52 -56 53 -6 82 c-6 71 -10 84 -30 98 -13 9 -39 30
-57 47 -34 32 -34 33 -34 120 0 120 -13 159 -66 209 -48 45 -64 78 -64 136 0
53 -21 101 -54 122 -14 10 -35 36 -46 60 -12 23 -44 63 -72 89 l-52 46 -6 104
c-7 112 -23 157 -66 184 -14 10 -38 43 -54 75 -17 32 -45 69 -64 84 -41 31
-61 75 -58 129 2 50 -21 99 -55 117 -14 8 -42 39 -62 69 -33 50 -40 55 -76 57
-22 1 -56 -3 -75 -8z"/>
<path d="M54540 15029 c-57 -23 -82 -67 -64 -114 7 -17 63 -48 106 -59 15 -3
53 -31 86 -60 32 -30 83 -65 113 -79 76 -34 99 -65 99 -136 0 -65 32 -188 62
-242 11 -21 33 -47 49 -58 16 -12 46 -48 68 -80 72 -105 70 -105 308 -99 182
5 208 8 231 25 58 44 64 60 68 208 4 117 2 141 -13 166 -16 26 -83 69 -110 69
-5 0 -34 23 -64 52 -29 28 -74 60 -99 70 -83 35 -92 42 -136 104 -32 45 -55
66 -84 78 -23 9 -63 32 -91 51 -28 19 -70 40 -92 46 -23 6 -69 20 -103 30 -33
11 -83 22 -110 24 -126 11 -201 13 -224 4z"/>
<path d="M63695 15016 c-64 -28 -93 -91 -74 -158 12 -44 34 -64 117 -108 106
-55 108 -63 110 -361 1 -188 -2 -257 -13 -299 -8 -30 -15 -86 -15 -125 0 -90
22 -128 88 -156 29 -13 67 -43 102 -80 46 -51 62 -61 97 -66 39 -5 46 -2 77
29 49 49 54 89 25 217 -22 97 -24 124 -21 311 4 215 -9 383 -32 428 -8 15 -34
42 -59 60 -65 46 -87 87 -87 158 0 108 -33 130 -245 158 -23 3 -53 -1 -70 -8z"/>
<path d="M23913 13894 c-7 -3 -24 -27 -38 -53 -15 -26 -40 -55 -56 -65 -16 -9
-41 -39 -54 -66 -14 -28 -37 -57 -53 -67 -47 -29 -62 -54 -62 -106 0 -64 -22
-112 -60 -132 -17 -9 -46 -39 -64 -68 -19 -29 -46 -63 -61 -77 -15 -14 -42
-48 -60 -76 -18 -28 -44 -62 -58 -76 -14 -14 -35 -45 -47 -69 -13 -24 -39 -64
-59 -89 -21 -25 -52 -76 -70 -113 -19 -39 -42 -73 -55 -78 -34 -16 -66 -71
-66 -113 0 -52 -27 -105 -66 -128 -18 -11 -46 -41 -63 -67 -16 -27 -43 -58
-60 -70 -17 -12 -43 -42 -57 -67 -14 -24 -36 -52 -48 -62 -12 -9 -44 -46 -71
-80 -26 -35 -54 -66 -61 -69 -8 -3 -30 -31 -49 -63 -20 -32 -51 -72 -70 -89
-21 -18 -43 -52 -56 -86 -15 -40 -33 -65 -65 -92 -25 -20 -59 -56 -75 -79 -16
-24 -42 -50 -57 -60 -16 -9 -41 -36 -56 -60 -15 -24 -41 -53 -57 -65 -17 -11
-48 -45 -69 -74 -22 -30 -48 -56 -58 -59 -10 -4 -34 -28 -52 -54 -19 -26 -41
-51 -49 -56 -9 -5 -46 -39 -82 -75 -36 -36 -72 -72 -80 -79 -8 -7 -50 -51 -94
-97 -44 -47 -88 -93 -98 -102 -11 -10 -49 -48 -85 -84 -37 -36 -72 -68 -78
-70 -5 -2 -29 -30 -52 -61 -24 -32 -49 -58 -56 -58 -15 0 -76 -65 -76 -80 0
-5 -11 -17 -24 -25 -20 -13 -76 -18 -297 -25 -181 -6 -324 -17 -424 -31 -129
-19 -178 -21 -350 -16 -110 3 -267 13 -350 21 -205 21 -577 36 -893 36 -293 0
-271 -5 -328 75 -20 26 -29 30 -95 36 -41 4 -128 8 -195 8 -105 1 -123 -1
-137 -17 -30 -33 -22 -69 22 -96 21 -14 49 -40 62 -58 12 -18 43 -54 68 -79
25 -26 64 -65 86 -88 93 -96 126 -126 154 -141 16 -8 43 -34 60 -57 17 -24 49
-54 71 -68 22 -14 47 -37 57 -51 17 -26 123 -84 154 -84 17 0 56 -39 84 -83
10 -15 32 -35 49 -44 17 -9 51 -37 76 -63 40 -42 52 -49 110 -59 54 -10 69
-17 90 -43 14 -17 40 -45 57 -62 18 -17 59 -57 92 -88 32 -32 64 -58 71 -58 6
0 31 -20 55 -44 34 -36 57 -48 120 -67 68 -21 82 -29 111 -67 18 -24 51 -57
74 -73 22 -16 45 -41 50 -54 7 -18 7 -603 1 -678 -1 -5 -25 -31 -53 -57 l-53
-49 -5 -138 c-4 -110 -9 -143 -23 -165 -10 -14 -24 -29 -32 -32 -33 -12 -47
-55 -54 -173 -9 -130 -28 -186 -76 -217 -41 -27 -57 -78 -56 -174 0 -99 -16
-149 -60 -177 -48 -32 -59 -64 -65 -187 -6 -122 -11 -140 -52 -165 -67 -41
-72 -51 -71 -128 2 -81 -9 -108 -50 -130 -50 -25 -71 -61 -71 -122 0 -64 -16
-98 -65 -136 -20 -16 -48 -53 -62 -83 -14 -30 -38 -63 -54 -74 -39 -29 -59
-90 -62 -191 -2 -94 -13 -116 -68 -145 -15 -7 -40 -35 -57 -62 -17 -27 -44
-59 -61 -71 -17 -12 -43 -42 -57 -66 -14 -25 -38 -55 -53 -68 -15 -13 -44 -48
-64 -79 -20 -31 -45 -61 -56 -67 -10 -6 -33 -34 -51 -63 -18 -29 -47 -69 -65
-88 -19 -19 -44 -62 -56 -95 -15 -41 -38 -76 -73 -112 -88 -89 -168 -179 -180
-201 -14 -27 -176 -192 -188 -192 -14 0 -48 -63 -48 -89 0 -42 -38 -108 -70
-121 -17 -7 -43 -34 -61 -62 -18 -27 -50 -61 -71 -74 -21 -13 -38 -29 -38 -35
0 -5 -32 -42 -70 -82 -39 -40 -95 -97 -124 -127 -30 -30 -59 -65 -65 -78 -7
-12 -30 -36 -52 -52 -22 -16 -53 -47 -69 -68 -16 -22 -42 -48 -57 -57 -16 -9
-42 -37 -58 -62 -16 -25 -44 -55 -62 -66 -19 -10 -47 -39 -64 -63 -16 -24 -43
-51 -58 -59 -16 -8 -45 -37 -64 -64 -20 -28 -50 -57 -66 -65 -16 -9 -40 -34
-52 -56 -12 -22 -40 -51 -61 -65 -21 -14 -50 -43 -65 -66 -14 -22 -39 -47 -55
-55 -16 -8 -42 -37 -59 -64 -17 -27 -45 -58 -63 -70 -18 -11 -45 -38 -60 -60
-15 -23 -40 -49 -57 -59 -16 -10 -45 -39 -63 -65 -19 -27 -48 -56 -65 -67 -16
-10 -42 -36 -57 -58 -14 -22 -42 -52 -60 -66 -19 -15 -46 -44 -61 -66 -14 -21
-41 -48 -59 -60 -19 -11 -46 -41 -60 -65 -14 -24 -39 -53 -55 -65 -16 -11 -41
-43 -54 -69 -14 -27 -45 -68 -69 -93 -30 -29 -47 -56 -53 -83 -4 -21 -8 -232
-8 -469 0 -471 0 -473 60 -505 14 -8 41 -39 60 -70 19 -31 46 -62 60 -70 15
-8 40 -32 57 -53 17 -21 47 -46 67 -56 20 -11 48 -33 63 -49 26 -29 31 -31
103 -30 86 0 95 8 95 76 0 29 -7 46 -26 66 -15 14 -30 26 -33 26 -4 0 -20 23
-36 51 -17 28 -45 62 -63 75 -45 35 -58 67 -65 160 -4 45 -14 126 -23 179 -16
93 -16 101 4 203 12 59 23 124 27 144 4 28 17 46 51 74 25 21 56 59 70 86 13
26 37 57 54 70 16 12 41 38 55 57 13 20 70 77 125 126 56 50 114 111 129 136
16 26 44 57 63 69 18 13 52 41 75 62 24 21 47 38 52 38 6 0 29 25 51 56 23 30
52 59 64 64 13 4 35 23 50 42 52 64 66 76 99 82 43 8 108 63 141 120 14 24 37
51 51 60 14 10 52 40 83 68 31 28 81 71 110 97 29 25 70 63 90 84 20 21 105
105 187 187 193 192 190 188 235 235 21 22 49 50 62 62 13 13 79 81 148 153
69 71 158 163 198 204 39 42 72 79 72 85 0 5 16 18 35 30 19 11 49 41 67 66
18 25 46 54 63 64 17 10 44 39 60 64 16 25 40 52 54 59 13 7 42 37 63 66 22
29 50 58 64 64 13 6 42 35 64 65 23 29 47 53 55 53 8 0 32 26 54 58 22 32 51
66 66 76 14 9 42 41 61 71 19 30 43 59 54 65 11 6 38 38 61 71 22 33 47 63 54
66 8 2 30 28 49 56 19 29 52 71 74 94 27 28 46 60 57 98 13 45 27 67 71 109
51 49 56 56 64 115 8 60 12 66 69 121 34 32 61 64 61 70 0 7 25 36 55 65 52
50 55 56 55 103 0 68 16 106 56 137 19 15 47 45 62 68 14 23 46 64 69 91 24
26 43 53 43 58 0 5 16 34 35 63 20 29 47 81 60 114 30 77 56 120 94 154 17 15
35 45 42 69 6 24 16 59 22 78 6 21 30 54 59 81 47 43 50 49 58 113 9 73 14 81
76 141 39 37 43 46 50 105 6 61 10 68 56 113 26 27 57 66 68 87 11 21 35 51
54 65 38 29 56 69 56 122 0 43 19 79 65 123 20 19 46 53 57 75 11 22 40 61 64
87 24 26 44 55 44 65 0 53 24 100 76 149 51 47 56 55 64 111 10 74 19 92 63
126 19 14 49 51 66 81 17 30 40 60 51 66 29 16 60 69 60 105 0 43 30 96 65
115 17 9 46 41 67 71 20 31 48 63 62 73 14 9 38 36 53 59 14 23 47 63 72 88
25 26 75 79 111 118 36 40 86 93 111 119 25 26 56 64 68 84 12 21 33 46 46 56
12 10 39 43 58 73 19 30 55 73 80 95 28 26 46 53 51 74 7 39 48 96 74 104 10
4 35 33 56 66 21 32 46 62 56 65 9 3 36 32 58 64 23 32 53 66 67 75 14 9 37
36 51 59 15 23 47 62 73 87 25 25 75 79 111 119 36 40 86 95 112 122 26 27 61
70 78 94 17 25 35 45 39 45 21 0 57 53 75 111 17 51 28 68 59 89 20 14 50 45
66 69 16 23 43 51 60 62 17 10 46 40 66 67 19 27 46 54 60 60 14 6 40 35 59
64 19 29 47 62 64 72 16 10 41 39 57 63 15 25 38 50 51 55 13 6 36 29 51 52
15 23 73 86 129 141 56 55 113 120 129 144 15 24 40 55 56 69 68 57 63 -22 69
1122 5 942 4 1037 -11 1060 -15 24 -50 35 -76 24z"/>
<path d="M44183 13775 c-48 -21 -73 -68 -73 -140 0 -84 22 -117 104 -154 37
-17 79 -45 97 -65 18 -21 63 -52 104 -71 50 -24 84 -49 109 -79 49 -60 104
-116 114 -116 21 0 96 -87 118 -138 16 -36 50 -82 94 -127 75 -78 79 -87 82
-190 3 -67 4 -70 38 -93 32 -22 42 -23 110 -17 171 15 194 31 215 151 7 43 15
111 16 149 4 71 -8 290 -17 333 -6 29 -48 69 -90 87 -18 7 -57 44 -89 85 -39
49 -71 78 -99 91 -22 10 -67 45 -99 78 -43 44 -73 66 -115 81 -31 12 -71 30
-87 40 -17 10 -58 23 -92 29 -33 5 -83 21 -111 35 -86 43 -263 60 -329 31z"/>
<path d="M57326 13275 c-9 -9 -16 -23 -16 -30 0 -19 45 -52 80 -60 26 -6 50
-28 117 -108 12 -14 39 -35 60 -46 21 -10 66 -49 99 -85 34 -36 81 -75 105
-87 58 -28 87 -66 99 -130 13 -69 28 -89 96 -135 61 -41 96 -96 126 -194 11
-37 23 -51 71 -84 45 -31 65 -53 87 -96 29 -57 82 -112 137 -142 52 -27 67
-62 73 -163 4 -57 13 -104 24 -128 18 -37 26 -46 113 -121 46 -41 69 -95 80
-186 7 -59 36 -98 100 -132 39 -20 75 -76 96 -148 21 -70 38 -94 90 -124 23
-14 54 -44 67 -66 14 -22 37 -60 51 -83 17 -28 42 -50 73 -67 27 -13 69 -48
95 -76 29 -33 65 -61 95 -74 27 -11 67 -36 88 -55 28 -26 47 -35 74 -35 48 0
100 26 130 65 14 18 41 44 60 57 67 45 75 71 83 278 7 151 6 194 -6 235 -9 28
-19 52 -23 55 -11 7 -99 146 -118 187 -15 32 -38 50 -142 113 -35 21 -49 40
-86 118 -24 50 -48 92 -53 92 -5 0 -48 39 -97 86 -49 47 -111 103 -139 124
-27 20 -72 62 -98 94 -27 31 -67 67 -90 81 -23 13 -68 54 -100 90 -32 36 -75
74 -95 84 -21 11 -61 47 -91 80 -29 34 -74 72 -99 86 -26 13 -71 51 -100 84
-32 37 -70 68 -97 80 -24 11 -68 45 -97 76 -32 35 -73 66 -103 80 -33 14 -66
40 -95 75 -30 36 -61 61 -97 76 -30 13 -76 47 -106 77 -37 38 -69 59 -104 71
-27 9 -73 37 -102 61 -29 25 -60 46 -69 47 -9 1 -30 2 -47 3 -16 1 -64 5 -106
9 -64 6 -79 5 -93 -9z"/>
<path d="M68370 7551 c0 -22 -44 -61 -69 -61 -26 0 -222 -84 -265 -113 -21
-15 -48 -27 -58 -27 -11 0 -34 -15 -50 -32 -18 -19 -47 -37 -71 -43 -48 -12
-67 -36 -48 -59 14 -16 68 -22 86 -8 6 4 18 19 27 33 13 21 27 27 70 33 29 3
82 15 118 26 36 11 73 17 83 14 18 -6 23 -34 8 -49 -5 -6 -17 -39 -27 -75 -14
-51 -18 -104 -19 -244 l-1 -179 -38 -31 c-35 -30 -39 -39 -58 -132 -19 -94
-29 -298 -19 -393 4 -30 -1 -40 -36 -70 -25 -22 -43 -48 -46 -66 -3 -16 -12
-65 -21 -108 -19 -91 -20 -147 -5 -200 8 -29 6 -51 -5 -98 -10 -39 -14 -79
-10 -113 6 -52 6 -53 -35 -85 -27 -22 -41 -41 -41 -56 0 -13 -7 -54 -16 -92
-13 -53 -18 -148 -23 -438 -3 -203 -4 -378 -2 -388 7 -32 53 -48 111 -37 61
12 73 19 133 87 58 66 64 77 89 171 16 61 19 93 13 154 -6 69 -4 79 14 97 12
12 27 21 34 21 8 0 24 11 36 24 19 20 24 38 26 88 1 35 3 69 3 76 1 7 23 22
50 35 43 20 48 26 52 63 7 45 56 120 92 138 13 6 24 20 26 30 8 37 -41 46
-124 21 -63 -18 -90 -44 -105 -98 -16 -54 -22 -61 -53 -53 -18 4 -28 16 -34
39 -9 34 -6 49 27 137 58 150 66 202 67 433 1 233 1 233 52 267 39 25 65 179
66 384 l1 168 33 28 c27 22 37 42 54 106 17 67 21 125 28 379 4 165 5 303 3
308 -2 4 -31 7 -64 7 -52 0 -59 -2 -59 -19z"/>
<path d="M76297 7503 c-5 -4 -108 -8 -230 -9 -232 -1 -237 -2 -402 -56 -183
-60 -414 -194 -449 -260 -14 -28 -31 -42 -63 -54 -49 -19 -68 -44 -59 -80 8
-28 -31 -74 -62 -74 -29 0 -55 -35 -49 -66 7 -40 -12 -73 -55 -95 -53 -27 -62
-50 -63 -159 0 -52 -4 -101 -9 -108 -4 -7 -24 -21 -45 -32 l-38 -19 -17 -130
c-11 -79 -15 -150 -11 -183 11 -88 4 -90 -233 -100 -239 -9 -284 -14 -342 -38
-25 -10 -79 -22 -122 -25 -82 -7 -115 -22 -105 -48 12 -31 73 -36 355 -31 276
6 277 6 322 -18 54 -28 59 -49 33 -140 -14 -53 -18 -109 -20 -341 -1 -154 -4
-285 -7 -293 -3 -7 -25 -23 -50 -34 -24 -12 -47 -28 -50 -37 -13 -32 -19 -278
-8 -317 9 -31 8 -45 -4 -67 -8 -16 -18 -29 -22 -29 -40 0 -83 -138 -86 -272
-1 -72 1 -78 28 -107 17 -17 26 -31 20 -31 -5 0 -2 -5 6 -10 8 -5 50 -10 93
-10 67 0 80 3 84 18 2 9 27 28 56 42 67 33 89 83 108 240 4 36 17 101 29 145
19 71 22 109 25 334 l3 255 33 26 c26 22 37 43 53 101 16 63 20 107 20 298 1
214 2 224 21 237 16 11 100 14 388 17 337 4 369 5 387 22 25 23 26 67 2 88
-16 15 -53 17 -318 17 -265 0 -303 2 -334 18 -35 17 -35 17 -34 82 16 672 13
652 74 665 38 8 51 26 49 66 -3 52 9 78 51 104 25 16 42 36 50 60 18 55 168
164 290 212 25 9 65 30 89 45 l45 28 236 0 c222 0 238 -1 275 -22 55 -29 145
-47 239 -48 73 0 81 2 113 30 19 17 52 38 73 46 46 18 66 57 51 96 -5 15 -19
29 -29 32 -11 4 -89 8 -173 10 -85 3 -165 7 -179 11 -14 4 -29 3 -33 -2z"/>
<path d="M56815 6870 c-15 -16 -44 -35 -64 -41 -57 -18 -62 -25 -55 -84 l6
-52 -45 -36 c-59 -50 -82 -107 -73 -190 l6 -61 -52 -48 -52 -48 -6 -95 c-7
-136 5 -130 -246 -130 -192 0 -206 -1 -220 -20 -12 -17 -12 -21 1 -35 12 -11
49 -16 158 -21 137 -5 190 -17 200 -43 2 -6 -4 -51 -14 -101 -15 -75 -16 -99
-7 -143 10 -49 10 -55 -10 -80 -32 -40 -43 -70 -52 -142 -5 -36 -18 -101 -30
-145 -20 -72 -22 -107 -23 -340 -2 -287 0 -299 60 -324 15 -6 37 -25 48 -41
11 -17 36 -37 55 -46 19 -10 50 -30 68 -45 18 -16 39 -29 46 -29 7 0 34 -14
60 -31 45 -30 52 -32 175 -37 135 -5 195 7 297 58 21 11 43 20 49 20 5 0 30
16 54 35 24 19 49 35 55 35 7 0 30 18 51 40 21 22 45 40 51 40 23 0 67 46 78
80 8 25 19 37 41 44 62 18 75 26 75 45 0 22 -27 41 -59 41 -20 0 -37 -13 -73
-58 -10 -12 -29 -22 -43 -22 -17 0 -38 -13 -58 -34 -18 -19 -43 -37 -57 -41
-14 -4 -39 -20 -57 -35 -38 -34 -114 -44 -299 -38 l-121 3 -42 38 c-22 20 -49
37 -59 37 -10 0 -27 6 -37 14 -18 13 -19 29 -16 302 2 196 -1 304 -9 335 -14
55 -6 77 45 124 29 27 35 41 55 148 16 87 20 134 15 178 -6 54 -5 63 16 85 12
13 29 24 36 24 8 0 40 11 73 25 l59 25 345 0 c325 0 345 1 367 19 23 19 23 20
6 38 -16 17 -47 18 -386 23 -290 4 -371 8 -384 19 -12 9 -17 30 -17 70 0 31
-1 69 -1 85 -1 23 8 38 44 70 60 54 81 111 72 192 l-6 61 45 39 c52 45 86 123
86 198 0 62 -22 76 -120 76 -72 0 -78 -2 -105 -30z"/>
<path d="M71610 6888 c-66 -12 -90 -31 -90 -71 0 -39 -60 -165 -94 -196 -31
-29 -34 -66 -7 -81 30 -16 129 -12 208 9 47 12 97 35 142 65 77 50 75 48 85
173 3 52 1 67 -16 88 -18 23 -25 25 -96 24 -42 -1 -102 -6 -132 -11z"/>
<path d="M46509 6152 c-59 -6 -84 -13 -115 -34 -31 -21 -56 -28 -117 -34 -62
-5 -85 -12 -107 -31 -16 -13 -43 -30 -62 -37 -18 -8 -46 -26 -63 -41 -16 -14
-45 -33 -64 -40 -18 -8 -49 -28 -67 -45 -19 -16 -41 -30 -49 -30 -15 0 -78
-49 -165 -129 -30 -28 -70 -64 -88 -81 -32 -29 -33 -33 -27 -78 7 -54 -2 -66
-66 -96 -34 -16 -37 -20 -41 -71 -3 -35 -12 -62 -24 -76 -10 -11 -24 -37 -29
-58 -9 -31 -15 -36 -43 -39 l-32 -3 0 -220 0 -219 30 0 c48 0 93 -47 99 -106
5 -43 10 -51 40 -66 19 -9 51 -33 71 -53 19 -19 41 -35 46 -35 6 0 31 -14 56
-30 66 -44 153 -52 489 -48 204 3 292 8 314 17 17 7 50 19 75 26 84 24 134 46
174 76 22 16 45 29 52 29 7 0 31 15 53 34 23 19 51 38 64 42 12 4 39 22 60 40
20 19 44 34 52 34 8 0 32 16 54 35 21 19 44 35 50 35 6 0 31 18 54 40 24 21
56 44 71 50 18 6 26 16 24 28 -3 14 -16 18 -71 20 -68 3 -69 2 -113 -38 -24
-22 -48 -40 -53 -40 -6 0 -25 -13 -43 -28 -29 -26 -194 -112 -212 -112 -4 0
-26 -13 -49 -30 -37 -26 -55 -31 -152 -40 -60 -5 -126 -14 -145 -20 -45 -13
-164 -13 -211 0 -20 6 -86 14 -147 19 -108 9 -113 10 -154 45 -23 20 -49 36
-58 36 -31 0 -60 30 -60 63 0 47 -16 95 -47 139 -26 38 -27 43 -28 191 -1 168
10 234 51 304 23 38 26 52 21 100 -7 68 2 87 53 113 41 21 60 45 60 79 0 11
10 27 23 36 74 53 200 130 252 154 11 5 58 21 105 35 111 34 255 36 350 6 34
-11 85 -20 112 -20 76 0 102 -19 127 -92 24 -69 27 -119 9 -147 -17 -28 -4
-47 39 -54 76 -13 110 -8 144 21 18 15 51 36 73 47 l41 20 3 130 c1 72 1 139
-2 150 -8 30 -42 46 -116 56 -47 6 -82 17 -116 38 -48 30 -51 31 -214 35 -91
2 -199 1 -241 -2z"/>
<path d="M48363 6126 c-21 -18 -49 -37 -63 -41 -14 -4 -42 -23 -63 -41 -20
-19 -44 -34 -52 -34 -8 0 -29 -13 -47 -29 -18 -16 -49 -35 -68 -43 -20 -9 -44
-27 -53 -42 -13 -19 -26 -26 -51 -26 -37 0 -83 -30 -72 -48 9 -15 61 -25 86
-17 12 4 25 18 30 31 8 20 16 24 54 24 53 0 76 -19 76 -61 0 -30 -26 -62 -79
-99 -31 -21 -53 -90 -41 -130 12 -43 -2 -76 -45 -101 -19 -12 -36 -24 -36 -27
-1 -4 -3 -20 -5 -37 -1 -16 -10 -63 -18 -103 -11 -52 -16 -127 -16 -260 0
-165 3 -192 20 -231 11 -24 20 -51 20 -60 0 -9 20 -38 45 -64 25 -27 45 -52
45 -56 0 -5 17 -17 38 -26 20 -10 51 -30 67 -45 17 -15 41 -31 55 -35 14 -4
41 -18 60 -31 29 -20 47 -24 109 -24 65 0 80 4 120 29 33 21 64 31 113 36 50
5 77 13 106 34 21 16 48 32 61 36 12 4 37 20 55 36 36 31 105 81 173 126 31
20 47 39 56 68 11 34 21 44 67 66 53 25 55 28 65 80 10 51 12 54 50 65 31 8
45 20 63 52 13 24 31 42 41 42 28 0 61 30 61 56 0 14 7 40 14 59 14 32 18 35
59 35 68 0 72 -10 72 -174 0 -133 2 -146 33 -234 18 -51 44 -109 57 -129 17
-24 25 -50 25 -78 0 -39 2 -43 41 -60 22 -10 49 -31 59 -46 11 -15 37 -34 57
-43 21 -9 52 -25 69 -36 56 -36 204 -27 329 21 28 10 56 19 62 19 7 0 27 13
45 29 18 15 48 36 67 46 19 9 45 30 59 46 13 17 42 39 63 49 80 41 79 120 -1
120 -13 0 -38 -17 -59 -39 -20 -21 -47 -42 -60 -46 -13 -4 -43 -21 -67 -38
-41 -28 -48 -30 -141 -30 -99 0 -176 14 -189 35 -4 6 -7 26 -6 44 2 39 -7 48
-68 78 l-45 21 -8 150 c-9 160 -9 171 -7 427 1 149 3 170 21 192 10 13 32 27
48 31 52 11 65 36 58 111 -8 79 0 97 51 117 54 22 61 34 64 117 l3 75 48 22
c84 40 48 73 -81 73 -112 -1 -149 -12 -191 -58 -20 -22 -49 -47 -64 -56 -36
-22 -56 -69 -50 -115 4 -30 0 -41 -22 -64 -15 -15 -33 -27 -40 -27 -6 0 -22
-12 -36 -26 -19 -20 -24 -37 -25 -77 -1 -29 -2 -58 -3 -65 0 -7 -26 -23 -56
-37 -54 -24 -55 -24 -55 -67 0 -55 -8 -67 -62 -92 -40 -20 -43 -24 -48 -69 -7
-53 -24 -76 -72 -91 -23 -8 -35 -20 -41 -41 -18 -60 -37 -96 -54 -101 -47 -15
-63 -30 -76 -68 -10 -32 -22 -45 -53 -61 -22 -11 -59 -38 -81 -60 -23 -22 -63
-57 -89 -78 -27 -21 -76 -60 -108 -87 -33 -28 -66 -50 -74 -50 -7 0 -46 -10
-84 -21 -58 -18 -86 -21 -157 -16 -125 8 -171 31 -171 84 0 15 -16 56 -36 92
l-37 66 -1 165 c-2 116 2 175 11 199 7 18 13 51 13 73 0 21 9 56 20 77 25 51
42 159 34 221 -8 57 1 72 57 100 20 11 40 27 44 37 4 10 11 63 14 118 l6 99
44 16 c100 34 74 80 -46 80 -69 0 -75 -2 -110 -34z"/>
<path d="M51365 6144 c-106 -39 -171 -76 -197 -114 -17 -24 -37 -40 -56 -45
-32 -6 -64 -34 -95 -79 -10 -14 -34 -33 -53 -41 -28 -11 -35 -19 -32 -37 2
-18 11 -24 34 -26 27 -3 35 2 52 32 12 19 36 42 54 49 18 8 46 29 62 46 17 17
39 31 51 31 12 0 43 11 69 25 38 20 61 25 120 25 115 0 108 18 108 -294 1
-155 -3 -271 -9 -277 -5 -5 -29 -19 -54 -32 l-44 -22 0 -120 c0 -126 -9 -158
-44 -170 -14 -4 -28 -33 -51 -103 -27 -84 -30 -105 -24 -161 l7 -64 -50 -46
c-48 -44 -51 -50 -63 -121 -11 -63 -10 -79 2 -100 13 -23 20 -25 94 -28 76 -3
83 -1 136 31 31 19 85 62 119 97 80 82 103 142 96 252 -6 90 1 104 64 127 l44
17 0 111 c0 123 3 129 66 161 23 11 41 32 57 64 13 28 34 54 50 62 19 10 35
33 51 71 20 49 30 59 66 75 27 12 46 27 50 42 8 26 54 78 68 78 6 0 31 19 57
43 70 63 180 128 279 167 30 11 67 30 83 41 29 21 92 33 234 45 63 6 77 4 132
-21 87 -39 91 -72 22 -169 -38 -54 -54 -117 -44 -175 11 -69 6 -82 -46 -131
-35 -33 -51 -56 -57 -85 -4 -22 -8 -189 -8 -372 l0 -331 24 -26 c14 -14 30
-26 37 -26 7 0 26 -18 43 -39 20 -24 56 -51 99 -72 65 -32 71 -33 192 -33 122
0 127 1 195 34 39 18 83 44 98 57 16 13 41 26 55 29 15 4 41 22 58 40 22 24
41 34 61 34 17 0 38 9 49 21 27 30 8 53 -49 57 -41 3 -47 0 -63 -27 -10 -17
-25 -33 -33 -36 -8 -3 -69 -8 -135 -11 l-121 -6 -77 37 c-42 20 -83 43 -89 52
-11 12 -20 136 -20 253 2 191 10 389 17 401 5 9 22 24 38 34 34 23 56 70 56
123 0 32 12 58 61 131 l61 91 9 127 c10 139 6 154 -49 168 -14 3 -41 19 -59
36 -18 16 -45 32 -58 35 -14 3 -101 5 -194 2 -139 -3 -172 -6 -192 -21 -13 -9
-33 -24 -44 -32 -11 -8 -53 -19 -94 -25 -49 -8 -88 -21 -119 -41 -25 -16 -51
-29 -58 -29 -7 0 -31 -16 -54 -35 -23 -19 -48 -35 -56 -35 -7 0 -29 -14 -48
-30 -18 -17 -49 -36 -68 -44 -18 -8 -42 -24 -53 -36 -11 -12 -38 -31 -59 -42
-39 -20 -144 -121 -180 -173 -10 -15 -35 -34 -55 -42 -47 -20 -70 -40 -86 -80
-15 -34 -33 -41 -53 -21 -18 18 -15 64 7 106 10 20 24 79 30 131 7 51 16 102
22 112 14 27 14 180 0 207 -6 12 -24 28 -39 36 -15 8 -44 33 -65 55 l-39 41
-131 -1 c-89 0 -145 -5 -172 -15z"/>
<path d="M58833 6150 c-17 -4 -46 -19 -62 -33 -17 -14 -41 -29 -52 -32 -12 -4
-42 -22 -66 -41 -25 -19 -50 -34 -57 -34 -7 0 -30 -15 -52 -33 -21 -18 -53
-39 -70 -46 -18 -7 -44 -26 -60 -42 -15 -16 -33 -29 -40 -29 -8 0 -30 -17 -51
-39 -21 -21 -53 -47 -71 -57 -19 -11 -35 -29 -38 -44 -11 -50 -24 -70 -63 -94
-52 -33 -61 -52 -61 -127 0 -62 0 -62 -51 -109 l-52 -48 2 -183 c2 -249 8
-274 70 -334 20 -19 34 -43 38 -68 5 -31 12 -41 43 -57 21 -11 49 -33 62 -49
12 -16 41 -38 64 -49 22 -11 46 -28 54 -37 18 -22 151 -82 221 -100 39 -10
109 -15 229 -15 208 0 301 12 352 47 20 14 56 29 79 34 24 6 66 22 94 36 27
15 68 36 90 47 22 11 59 35 83 53 24 18 49 33 56 33 17 0 42 29 51 60 10 34
34 60 57 60 10 0 41 20 67 45 26 25 52 45 58 45 20 0 54 42 48 60 -9 28 15 68
54 92 54 32 61 45 61 119 0 58 3 69 26 93 15 14 30 26 34 26 10 0 27 45 39
108 15 74 14 174 -4 256 -12 60 -20 75 -55 107 -39 36 -42 41 -38 86 3 48 3
48 -39 68 -23 11 -55 32 -70 47 -15 14 -46 35 -69 46 -22 11 -46 28 -54 37 -7
9 -29 23 -48 31 -19 7 -50 27 -68 44 l-35 30 -337 -1 c-185 -1 -351 -4 -369
-9z m319 -150 c187 -27 367 -138 462 -283 65 -101 65 -100 81 -222 15 -110 7
-316 -14 -369 -7 -16 -27 -50 -46 -75 -18 -26 -41 -64 -49 -86 -9 -22 -34 -55
-55 -72 -55 -46 -211 -143 -241 -150 -14 -3 -56 -19 -94 -35 l-70 -30 -190 5
c-182 4 -195 6 -281 36 -121 42 -184 83 -259 166 -67 76 -69 79 -107 269 -22
108 -22 110 -4 205 35 187 49 227 98 280 24 26 48 62 52 79 5 23 23 44 73 80
104 76 182 123 237 142 27 10 66 25 86 34 20 8 76 19 125 24 123 13 121 13
196 2z"/>
<path d="M61216 6130 c-18 -17 -49 -36 -68 -44 -18 -8 -42 -23 -51 -34 -10
-11 -33 -26 -50 -33 -18 -7 -49 -27 -70 -45 -21 -17 -51 -34 -67 -38 -19 -3
-35 -16 -44 -34 -12 -24 -24 -31 -60 -36 -52 -8 -75 -29 -59 -54 7 -11 24 -17
49 -17 33 0 41 4 53 30 19 40 26 43 74 35 49 -10 70 -34 63 -74 -8 -40 -23
-56 -73 -77 -53 -23 -67 -52 -53 -112 15 -67 12 -78 -31 -119 -37 -35 -42 -47
-60 -131 -14 -70 -19 -138 -21 -287 -1 -179 1 -201 22 -265 12 -38 33 -79 45
-90 12 -11 32 -35 44 -53 12 -18 37 -40 54 -49 18 -8 47 -29 65 -44 18 -16 39
-29 46 -29 7 0 33 -13 57 -30 40 -27 52 -30 124 -30 71 0 85 3 122 29 30 20
59 30 104 35 35 3 76 15 93 26 17 11 49 29 72 40 22 10 49 29 60 41 10 11 32
28 48 36 16 8 52 34 81 56 30 23 65 50 79 60 16 11 26 27 26 42 0 24 41 65 65
65 7 0 24 9 39 21 20 16 26 29 26 59 0 42 9 52 61 69 27 9 41 21 54 50 12 27
25 41 44 45 41 9 50 19 60 69 11 62 25 77 72 77 59 0 83 -29 74 -88 -22 -140
15 -340 80 -437 11 -17 22 -52 25 -80 4 -45 9 -52 39 -67 19 -9 51 -33 71 -53
19 -19 41 -35 46 -35 6 0 31 -13 56 -30 40 -27 54 -30 124 -31 43 -1 92 4 107
10 16 6 40 11 53 11 36 0 164 57 195 86 14 13 31 24 38 24 8 0 35 23 62 50 27
28 55 50 63 50 17 0 66 56 66 75 0 22 -30 45 -59 45 -20 0 -39 -12 -65 -40
-20 -22 -43 -40 -50 -40 -7 0 -34 -15 -60 -34 -57 -40 -135 -52 -247 -36 -87
12 -109 29 -109 81 0 39 -26 69 -60 69 -8 0 -24 7 -35 15 -17 14 -19 30 -22
148 -7 307 -5 566 6 630 0 4 25 19 55 32 61 27 68 42 59 127 -7 67 0 80 63
107 50 22 60 46 50 120 -7 54 5 72 61 92 42 14 48 35 17 55 -20 14 -44 16
-134 12 l-109 -4 -60 -57 c-33 -31 -64 -57 -70 -57 -18 0 -35 -44 -41 -105 -5
-55 -8 -61 -40 -81 -71 -45 -80 -58 -80 -122 0 -64 -13 -85 -62 -97 -38 -10
-52 -31 -50 -75 2 -31 -2 -42 -24 -59 -15 -12 -32 -21 -38 -21 -24 0 -58 -42
-52 -64 8 -37 -16 -77 -63 -99 -39 -19 -47 -28 -62 -77 -10 -30 -21 -56 -26
-57 -52 -18 -79 -42 -93 -82 -12 -35 -22 -47 -47 -55 -18 -6 -52 -31 -77 -56
-50 -51 -105 -96 -150 -123 -17 -11 -47 -34 -66 -53 -26 -24 -59 -41 -120 -60
-74 -22 -97 -25 -182 -21 -125 6 -158 23 -174 88 -7 25 -26 72 -43 105 l-31
59 0 168 c0 134 3 174 16 199 10 19 14 42 10 60 -4 21 2 44 21 81 23 45 27 65
29 153 2 125 6 138 49 159 56 26 69 55 71 155 1 48 4 93 8 99 4 6 25 16 47 22
54 17 67 34 44 59 -15 16 -31 20 -91 20 -67 0 -76 -3 -108 -30z"/>
<path d="M66175 6139 c-118 -36 -188 -69 -226 -107 -20 -20 -51 -46 -69 -57
-26 -15 -36 -30 -43 -60 -9 -42 -4 -198 8 -226 3 -9 24 -25 46 -34 49 -23 61
-37 68 -82 5 -31 12 -38 44 -49 21 -7 73 -45 115 -84 42 -38 93 -77 112 -87
19 -9 55 -31 79 -50 24 -18 49 -33 55 -33 7 0 27 -15 45 -34 18 -19 45 -37 59
-41 15 -4 43 -22 64 -41 21 -19 44 -34 52 -34 7 0 25 -9 39 -20 23 -18 26 -28
24 -70 -2 -37 3 -56 21 -79 12 -16 22 -37 22 -46 0 -9 9 -36 20 -61 24 -51 20
-76 -16 -114 -12 -14 -30 -42 -39 -63 -17 -42 -33 -51 -116 -67 -37 -7 -67
-21 -89 -40 -42 -38 -75 -42 -298 -38 l-184 3 -29 33 c-31 35 -149 102 -179
102 -25 0 -57 43 -71 93 -13 50 -8 108 16 169 27 66 14 102 -37 106 -31 3 -40
-2 -60 -28 -13 -18 -40 -41 -60 -51 -22 -11 -40 -28 -42 -42 -4 -19 -15 -159
-20 -241 -1 -25 6 -32 54 -58 30 -17 64 -38 75 -49 28 -25 132 -60 160 -53 12
3 40 -2 61 -11 63 -27 215 -40 434 -36 l205 3 43 28 c33 22 60 30 117 35 63 6
83 13 122 41 27 19 53 34 60 34 6 0 33 18 58 40 25 22 53 40 61 40 8 0 23 9
34 20 18 18 20 33 20 181 0 125 -3 168 -16 194 -8 18 -52 67 -97 109 -45 42
-96 89 -113 105 -17 16 -49 39 -70 51 -21 12 -48 30 -59 40 -11 10 -39 27 -62
39 -23 12 -47 30 -53 40 -5 11 -25 24 -44 31 -18 6 -41 19 -51 30 -10 11 -39
26 -65 35 -58 19 -77 39 -82 85 -2 27 -11 39 -38 57 -71 44 -70 42 -70 166 0
131 -3 125 104 181 68 35 71 36 189 36 76 0 139 -5 171 -15 28 -8 62 -17 76
-20 14 -3 58 -36 98 -74 l73 -69 -2 -74 c-2 -40 0 -79 5 -86 12 -20 74 -14 97
9 23 23 23 13 -3 204 l-13 90 -110 55 -110 55 -250 2 c-228 2 -256 1 -320 -18z"/>
<path d="M69275 6140 c-90 -27 -168 -63 -203 -92 -17 -14 -45 -29 -62 -33 -16
-4 -39 -19 -50 -35 -13 -18 -35 -31 -63 -38 -28 -8 -50 -21 -65 -42 -15 -20
-31 -30 -48 -30 -17 0 -38 -12 -58 -34 -18 -20 -48 -39 -72 -45 -48 -13 -62
-36 -38 -62 24 -26 78 -25 104 3 11 12 20 25 20 30 0 4 18 12 40 18 23 6 53
24 67 41 15 16 44 34 65 40 26 6 43 18 50 35 14 29 18 30 178 45 69 6 147 14
173 16 94 10 137 -19 137 -91 0 -24 -7 -60 -15 -80 -10 -24 -13 -50 -9 -76 8
-47 -3 -63 -58 -91 -29 -15 -38 -25 -38 -45 0 -14 -7 -50 -16 -80 -13 -45 -15
-109 -12 -401 2 -251 6 -354 15 -369 7 -12 30 -29 52 -38 46 -18 65 -47 57
-87 -4 -22 0 -32 21 -49 24 -18 39 -20 212 -20 l186 0 34 29 c18 16 51 34 73
40 49 15 59 38 29 63 -18 14 -40 18 -101 18 -68 0 -82 3 -107 24 -15 13 -49
33 -75 44 -27 11 -48 27 -48 34 0 7 -3 56 -7 108 -7 104 -7 281 0 514 4 143 5
149 28 167 13 10 29 19 36 19 6 0 21 12 32 27 18 21 21 38 19 90 l-3 64 46 42
c51 45 72 91 84 175 8 60 -6 86 -54 97 -14 3 -46 21 -70 40 l-44 35 -191 -1
c-155 0 -202 -4 -251 -19z"/>
<path d="M71484 6145 c-28 -6 -71 -24 -96 -39 -24 -14 -51 -26 -60 -26 -8 0
-25 -11 -38 -25 -12 -13 -39 -30 -59 -36 -41 -13 -71 -36 -71 -54 0 -15 -22
-25 -57 -25 -16 0 -37 -13 -57 -34 -17 -19 -44 -38 -61 -41 -16 -4 -44 -23
-62 -41 -18 -19 -42 -34 -53 -34 -57 0 -83 -52 -34 -70 36 -14 68 -3 93 30 12
18 37 33 60 40 22 6 46 21 55 35 9 13 31 28 49 33 21 5 40 21 56 45 26 39 48
45 95 27 38 -14 51 -45 37 -92 -10 -32 -20 -42 -56 -58 -56 -24 -69 -48 -62
-121 6 -67 -7 -92 -57 -113 l-33 -14 -10 -143 c-6 -79 -11 -166 -12 -194 -11
-469 -11 -596 -1 -615 6 -12 30 -29 53 -39 23 -10 49 -26 56 -35 32 -38 73
-49 182 -50 l106 0 54 37 c30 20 59 37 66 37 6 0 25 11 41 25 17 14 47 32 68
41 21 9 50 29 65 45 18 19 37 29 56 29 17 0 38 9 49 21 27 30 8 53 -49 57 -41
3 -48 0 -63 -25 -10 -15 -19 -30 -20 -32 -2 -1 -38 -9 -81 -17 -142 -26 -241
-2 -257 62 -4 15 -21 44 -39 66 l-32 40 -3 149 c-3 144 -2 154 27 247 45 142
64 270 57 368 -7 89 -3 98 62 124 44 17 53 38 51 114 -1 35 2 69 6 75 4 7 27
21 50 31 54 23 65 43 65 119 0 51 -3 62 -22 75 -26 18 -44 19 -114 1z"/>
<path d="M76714 6126 c-21 -18 -49 -36 -61 -40 -13 -4 -41 -23 -64 -42 -22
-19 -47 -34 -55 -34 -8 0 -31 -15 -51 -34 -21 -18 -48 -37 -61 -40 -12 -4 -33
-19 -46 -32 -12 -14 -42 -31 -66 -38 -52 -15 -70 -37 -51 -60 22 -27 71 -20
107 15 28 27 37 31 67 25 26 -5 38 -14 47 -36 21 -50 6 -76 -58 -107 -55 -27
-57 -29 -56 -68 0 -22 4 -57 8 -78 8 -36 6 -40 -34 -77 -38 -35 -44 -47 -61
-123 -25 -115 -34 -465 -12 -523 8 -21 18 -53 22 -71 9 -34 117 -163 137 -163
7 0 31 -16 54 -35 23 -19 47 -35 53 -35 7 0 32 -14 57 -30 40 -27 53 -30 124
-30 70 0 83 3 113 26 24 18 55 29 105 36 78 10 163 52 244 121 25 20 49 37 54
37 5 0 29 17 53 38 24 20 58 45 75 54 19 10 34 28 38 45 8 35 42 73 65 73 32
0 62 35 68 81 6 44 10 48 81 79 8 3 23 23 33 43 11 21 26 37 36 37 31 0 58 28
64 67 10 59 32 83 75 83 48 -1 75 -22 73 -57 -10 -169 5 -302 45 -390 8 -17
14 -36 14 -43 0 -7 11 -25 25 -42 19 -22 25 -41 25 -74 0 -40 3 -47 32 -62 17
-9 50 -34 72 -54 22 -21 44 -38 50 -38 5 0 30 -14 56 -30 42 -27 56 -30 126
-31 43 0 92 4 107 10 16 6 38 11 49 11 34 0 150 50 188 81 19 16 41 29 48 29
8 0 35 23 62 50 40 42 54 50 84 50 l36 0 0 60 0 60 -41 0 c-34 0 -46 -6 -72
-36 -18 -19 -50 -44 -72 -55 -22 -10 -55 -28 -72 -40 -54 -34 -271 -29 -308 7
-8 9 -15 30 -15 47 0 43 -8 53 -63 76 -26 11 -47 26 -48 33 -2 20 -8 318 -11
543 -4 225 -1 236 59 255 63 21 66 26 60 106 -3 39 -1 77 3 85 5 7 28 23 52
34 56 26 70 55 62 127 l-6 57 48 23 c103 49 57 82 -103 76 l-103 -5 -57 -51
c-32 -28 -70 -63 -85 -76 -24 -21 -28 -32 -28 -81 0 -46 -4 -60 -25 -80 -13
-14 -30 -25 -38 -25 -7 0 -24 -11 -37 -25 -18 -19 -23 -36 -24 -87 l-1 -63
-43 -22 c-66 -33 -74 -43 -68 -78 8 -40 -8 -62 -65 -89 -41 -20 -44 -24 -49
-69 -6 -52 -19 -69 -71 -95 -26 -13 -37 -28 -49 -63 -17 -51 -36 -79 -55 -79
-24 0 -59 -38 -70 -76 -8 -31 -17 -40 -43 -48 -18 -5 -47 -25 -64 -45 -17 -20
-46 -45 -64 -56 -35 -22 -81 -59 -154 -123 -46 -41 -69 -51 -190 -82 -47 -13
-135 -12 -201 0 -60 11 -99 45 -99 85 0 13 -15 48 -32 77 l-33 53 1 190 c0
216 11 301 43 363 20 39 22 56 19 148 -3 115 2 126 72 162 41 21 51 49 53 157
l2 80 45 21 c69 34 77 44 50 66 -17 14 -39 18 -94 18 -68 0 -75 -2 -112 -34z"/>
</g>
</svg>
